<svg xmlns="http://www.w3.org/2000/svg" xmlns:xlink="http://www.w3.org/1999/xlink" width="500" zoomAndPan="magnify" viewBox="0 0 375 187.499995" height="250" preserveAspectRatio="xMidYMid meet" version="1.0"><defs><g/><clipPath id="b53d28be71"><path d="M 107 102 L 374.5 102 L 374.5 105 L 107 105 Z M 107 102 " clip-rule="nonzero"/></clipPath><clipPath id="7c2a0afbe9"><path d="M 0.5 17.148438 L 120.777344 17.148438 L 120.777344 169.742188 L 0.5 169.742188 Z M 0.5 17.148438 " clip-rule="nonzero"/></clipPath></defs><g clip-path="url(#b53d28be71)"><path stroke-linecap="butt" transform="matrix(0.748005, -0.000000000000000278, 0.000000000000000278, 0.748005, 108.337609, 102.520857)" fill="none" stroke-linejoin="miter" d="M -0.00223414 1.000894 L 355.829569 1.000894 " stroke="#e5c078" stroke-width="2" stroke-opacity="1" stroke-miterlimit="4"/></g><g fill="#fefce3" fill-opacity="1"><g transform="translate(119.995454, 132.361277)"><g><path d="M 2.03125 -14.375 L 8.15625 -14.375 C 8.96875 -14.375 9.691406 -14.257812 10.328125 -14.03125 C 10.972656 -13.800781 11.5 -13.488281 11.90625 -13.09375 C 12.519531 -12.457031 12.828125 -11.691406 12.828125 -10.796875 L 12.828125 -10.765625 C 12.828125 -10.296875 12.757812 -9.878906 12.625 -9.515625 C 12.5 -9.148438 12.328125 -8.832031 12.109375 -8.5625 C 11.890625 -8.300781 11.644531 -8.078125 11.375 -7.890625 C 11.113281 -7.703125 10.835938 -7.550781 10.546875 -7.4375 C 10.972656 -7.3125 11.375 -7.148438 11.75 -6.953125 C 12.125 -6.753906 12.445312 -6.515625 12.71875 -6.234375 C 13 -5.960938 13.21875 -5.640625 13.375 -5.265625 C 13.539062 -4.890625 13.625 -4.457031 13.625 -3.96875 L 13.625 -3.921875 C 13.625 -3.304688 13.5 -2.753906 13.25 -2.265625 C 13.007812 -1.785156 12.660156 -1.375 12.203125 -1.03125 C 11.742188 -0.695312 11.191406 -0.441406 10.546875 -0.265625 C 9.910156 -0.0859375 9.203125 0 8.421875 0 L 2.03125 0 Z M 11.1875 -10.578125 C 11.1875 -11.285156 10.910156 -11.851562 10.359375 -12.28125 C 9.816406 -12.707031 9.03125 -12.921875 8 -12.921875 L 3.640625 -12.921875 L 3.640625 -7.96875 L 7.890625 -7.96875 C 8.867188 -7.96875 9.660156 -8.179688 10.265625 -8.609375 C 10.878906 -9.046875 11.1875 -9.6875 11.1875 -10.53125 Z M 11.984375 -4.0625 C 11.984375 -4.84375 11.660156 -5.445312 11.015625 -5.875 C 10.378906 -6.3125 9.429688 -6.53125 8.171875 -6.53125 L 3.640625 -6.53125 L 3.640625 -1.453125 L 8.453125 -1.453125 C 9.546875 -1.453125 10.40625 -1.675781 11.03125 -2.125 C 11.664062 -2.582031 11.984375 -3.21875 11.984375 -4.03125 Z M 11.984375 -4.0625 "/></g></g></g><g fill="#fefce3" fill-opacity="1"><g transform="translate(138.533014, 132.361277)"><g><path d="M 2.03125 -14.375 L 12.421875 -14.375 L 12.421875 -12.890625 L 3.65625 -12.890625 L 3.65625 -7.984375 L 11.5 -7.984375 L 11.5 -6.515625 L 3.65625 -6.515625 L 3.65625 -1.484375 L 12.53125 -1.484375 L 12.53125 0 L 2.03125 0 Z M 2.03125 -14.375 "/></g></g></g><g fill="#fefce3" fill-opacity="1"><g transform="translate(156.003231, 132.361277)"><g><path d="M 5.765625 -12.875 L 0.921875 -12.875 L 0.921875 -14.375 L 12.234375 -14.375 L 12.234375 -12.875 L 7.390625 -12.875 L 7.390625 0 L 5.765625 0 Z M 5.765625 -12.875 "/></g></g></g><g fill="#fefce3" fill-opacity="1"><g transform="translate(172.878186, 132.361277)"><g><path d="M 5.765625 -12.875 L 0.921875 -12.875 L 0.921875 -14.375 L 12.234375 -14.375 L 12.234375 -12.875 L 7.390625 -12.875 L 7.390625 0 L 5.765625 0 Z M 5.765625 -12.875 "/></g></g></g><g fill="#fefce3" fill-opacity="1"><g transform="translate(189.753141, 132.361277)"><g><path d="M 2.03125 -14.375 L 12.421875 -14.375 L 12.421875 -12.890625 L 3.65625 -12.890625 L 3.65625 -7.984375 L 11.5 -7.984375 L 11.5 -6.515625 L 3.65625 -6.515625 L 3.65625 -1.484375 L 12.53125 -1.484375 L 12.53125 0 L 2.03125 0 Z M 2.03125 -14.375 "/></g></g></g><g fill="#fefce3" fill-opacity="1"><g transform="translate(207.223358, 132.361277)"><g><path d="M 2.03125 -14.375 L 8.21875 -14.375 C 9.101562 -14.375 9.890625 -14.242188 10.578125 -13.984375 C 11.273438 -13.734375 11.847656 -13.382812 12.296875 -12.9375 C 12.648438 -12.582031 12.921875 -12.164062 13.109375 -11.6875 C 13.304688 -11.207031 13.40625 -10.675781 13.40625 -10.09375 L 13.40625 -10.0625 C 13.40625 -9.457031 13.304688 -8.914062 13.109375 -8.4375 C 12.921875 -7.96875 12.648438 -7.554688 12.296875 -7.203125 C 11.953125 -6.859375 11.539062 -6.570312 11.0625 -6.34375 C 10.582031 -6.125 10.0625 -5.96875 9.5 -5.875 L 13.921875 0 L 11.921875 0 L 7.765625 -5.578125 L 3.65625 -5.578125 L 3.65625 0 L 2.03125 0 Z M 8.0625 -7.046875 C 8.601562 -7.046875 9.097656 -7.113281 9.546875 -7.25 C 9.992188 -7.382812 10.378906 -7.578125 10.703125 -7.828125 C 11.035156 -8.085938 11.296875 -8.394531 11.484375 -8.75 C 11.671875 -9.113281 11.765625 -9.53125 11.765625 -10 L 11.765625 -10.046875 C 11.765625 -10.929688 11.441406 -11.625 10.796875 -12.125 C 10.148438 -12.625 9.25 -12.875 8.09375 -12.875 L 3.65625 -12.875 L 3.65625 -7.046875 Z M 8.0625 -7.046875 "/></g></g></g><g fill="#fefce3" fill-opacity="1"><g transform="translate(225.781438, 132.361277)"><g/></g></g><g fill="#fefce3" fill-opacity="1"><g transform="translate(235.657091, 132.361277)"><g><path d="M 10.140625 -2.03125 C 9.484375 -1.320312 8.769531 -0.769531 8 -0.375 C 7.238281 0.0078125 6.382812 0.203125 5.4375 0.203125 C 4.789062 0.203125 4.191406 0.109375 3.640625 -0.078125 C 3.085938 -0.273438 2.609375 -0.550781 2.203125 -0.90625 C 1.796875 -1.257812 1.476562 -1.679688 1.25 -2.171875 C 1.03125 -2.671875 0.921875 -3.21875 0.921875 -3.8125 L 0.921875 -3.859375 C 0.921875 -4.816406 1.222656 -5.632812 1.828125 -6.3125 C 2.429688 -7 3.285156 -7.5625 4.390625 -8 C 3.898438 -8.582031 3.535156 -9.113281 3.296875 -9.59375 C 3.066406 -10.070312 2.953125 -10.597656 2.953125 -11.171875 L 2.953125 -11.203125 C 2.953125 -11.671875 3.046875 -12.113281 3.234375 -12.53125 C 3.421875 -12.945312 3.675781 -13.304688 4 -13.609375 C 4.332031 -13.921875 4.726562 -14.164062 5.1875 -14.34375 C 5.65625 -14.53125 6.175781 -14.625 6.75 -14.625 C 7.257812 -14.625 7.722656 -14.535156 8.140625 -14.359375 C 8.566406 -14.191406 8.9375 -13.957031 9.25 -13.65625 C 9.5625 -13.363281 9.804688 -13.019531 9.984375 -12.625 C 10.160156 -12.238281 10.25 -11.820312 10.25 -11.375 L 10.25 -11.328125 C 10.25 -10.410156 9.945312 -9.648438 9.34375 -9.046875 C 8.738281 -8.453125 7.910156 -7.96875 6.859375 -7.59375 L 10.140625 -4.25 C 10.453125 -4.71875 10.753906 -5.21875 11.046875 -5.75 C 11.335938 -6.28125 11.609375 -6.847656 11.859375 -7.453125 L 13.203125 -6.84375 C 12.890625 -6.15625 12.5625 -5.507812 12.21875 -4.90625 C 11.882812 -4.300781 11.519531 -3.738281 11.125 -3.21875 L 13.625 -0.65625 L 12.40625 0.28125 Z M 5.953125 -8.515625 C 6.867188 -8.835938 7.554688 -9.21875 8.015625 -9.65625 C 8.484375 -10.101562 8.71875 -10.632812 8.71875 -11.25 L 8.71875 -11.296875 C 8.71875 -11.867188 8.523438 -12.34375 8.140625 -12.71875 C 7.765625 -13.09375 7.28125 -13.28125 6.6875 -13.28125 C 6.03125 -13.28125 5.503906 -13.082031 5.109375 -12.6875 C 4.710938 -12.289062 4.515625 -11.796875 4.515625 -11.203125 L 4.515625 -11.171875 C 4.515625 -10.960938 4.535156 -10.757812 4.578125 -10.5625 C 4.628906 -10.363281 4.707031 -10.160156 4.8125 -9.953125 C 4.925781 -9.753906 5.078125 -9.535156 5.265625 -9.296875 C 5.453125 -9.066406 5.679688 -8.804688 5.953125 -8.515625 Z M 5.5625 -1.171875 C 6.25 -1.171875 6.890625 -1.335938 7.484375 -1.671875 C 8.078125 -2.003906 8.632812 -2.457031 9.15625 -3.03125 L 5.3125 -7 C 4.351562 -6.644531 3.65625 -6.195312 3.21875 -5.65625 C 2.78125 -5.113281 2.5625 -4.535156 2.5625 -3.921875 L 2.5625 -3.875 C 2.5625 -3.5 2.632812 -3.144531 2.78125 -2.8125 C 2.925781 -2.476562 3.128906 -2.1875 3.390625 -1.9375 C 3.660156 -1.695312 3.976562 -1.507812 4.34375 -1.375 C 4.71875 -1.238281 5.125 -1.171875 5.5625 -1.171875 Z M 5.5625 -1.171875 "/></g></g></g><g fill="#fefce3" fill-opacity="1"><g transform="translate(253.66098, 132.361277)"><g/></g></g><g fill="#fefce3" fill-opacity="1"><g transform="translate(263.536626, 132.361277)"><g><path d="M 2.03125 -14.375 L 8.15625 -14.375 C 8.96875 -14.375 9.691406 -14.257812 10.328125 -14.03125 C 10.972656 -13.800781 11.5 -13.488281 11.90625 -13.09375 C 12.519531 -12.457031 12.828125 -11.691406 12.828125 -10.796875 L 12.828125 -10.765625 C 12.828125 -10.296875 12.757812 -9.878906 12.625 -9.515625 C 12.5 -9.148438 12.328125 -8.832031 12.109375 -8.5625 C 11.890625 -8.300781 11.644531 -8.078125 11.375 -7.890625 C 11.113281 -7.703125 10.835938 -7.550781 10.546875 -7.4375 C 10.972656 -7.3125 11.375 -7.148438 11.75 -6.953125 C 12.125 -6.753906 12.445312 -6.515625 12.71875 -6.234375 C 13 -5.960938 13.21875 -5.640625 13.375 -5.265625 C 13.539062 -4.890625 13.625 -4.457031 13.625 -3.96875 L 13.625 -3.921875 C 13.625 -3.304688 13.5 -2.753906 13.25 -2.265625 C 13.007812 -1.785156 12.660156 -1.375 12.203125 -1.03125 C 11.742188 -0.695312 11.191406 -0.441406 10.546875 -0.265625 C 9.910156 -0.0859375 9.203125 0 8.421875 0 L 2.03125 0 Z M 11.1875 -10.578125 C 11.1875 -11.285156 10.910156 -11.851562 10.359375 -12.28125 C 9.816406 -12.707031 9.03125 -12.921875 8 -12.921875 L 3.640625 -12.921875 L 3.640625 -7.96875 L 7.890625 -7.96875 C 8.867188 -7.96875 9.660156 -8.179688 10.265625 -8.609375 C 10.878906 -9.046875 11.1875 -9.6875 11.1875 -10.53125 Z M 11.984375 -4.0625 C 11.984375 -4.84375 11.660156 -5.445312 11.015625 -5.875 C 10.378906 -6.3125 9.429688 -6.53125 8.171875 -6.53125 L 3.640625 -6.53125 L 3.640625 -1.453125 L 8.453125 -1.453125 C 9.546875 -1.453125 10.40625 -1.675781 11.03125 -2.125 C 11.664062 -2.582031 11.984375 -3.21875 11.984375 -4.03125 Z M 11.984375 -4.0625 "/></g></g></g><g fill="#fefce3" fill-opacity="1"><g transform="translate(282.074194, 132.361277)"><g><path d="M 2.03125 -14.375 L 12.421875 -14.375 L 12.421875 -12.890625 L 3.65625 -12.890625 L 3.65625 -7.984375 L 11.5 -7.984375 L 11.5 -6.515625 L 3.65625 -6.515625 L 3.65625 -1.484375 L 12.53125 -1.484375 L 12.53125 0 L 2.03125 0 Z M 2.03125 -14.375 "/></g></g></g><g fill="#fefce3" fill-opacity="1"><g transform="translate(299.544416, 132.361277)"><g><path d="M 5.765625 -12.875 L 0.921875 -12.875 L 0.921875 -14.375 L 12.234375 -14.375 L 12.234375 -12.875 L 7.390625 -12.875 L 7.390625 0 L 5.765625 0 Z M 5.765625 -12.875 "/></g></g></g><g fill="#fefce3" fill-opacity="1"><g transform="translate(316.419364, 132.361277)"><g><path d="M 5.765625 -12.875 L 0.921875 -12.875 L 0.921875 -14.375 L 12.234375 -14.375 L 12.234375 -12.875 L 7.390625 -12.875 L 7.390625 0 L 5.765625 0 Z M 5.765625 -12.875 "/></g></g></g><g fill="#fefce3" fill-opacity="1"><g transform="translate(333.294312, 132.361277)"><g><path d="M 2.03125 -14.375 L 12.421875 -14.375 L 12.421875 -12.890625 L 3.65625 -12.890625 L 3.65625 -7.984375 L 11.5 -7.984375 L 11.5 -6.515625 L 3.65625 -6.515625 L 3.65625 -1.484375 L 12.53125 -1.484375 L 12.53125 0 L 2.03125 0 Z M 2.03125 -14.375 "/></g></g></g><g fill="#fefce3" fill-opacity="1"><g transform="translate(350.764535, 132.361277)"><g><path d="M 2.03125 -14.375 L 8.21875 -14.375 C 9.101562 -14.375 9.890625 -14.242188 10.578125 -13.984375 C 11.273438 -13.734375 11.847656 -13.382812 12.296875 -12.9375 C 12.648438 -12.582031 12.921875 -12.164062 13.109375 -11.6875 C 13.304688 -11.207031 13.40625 -10.675781 13.40625 -10.09375 L 13.40625 -10.0625 C 13.40625 -9.457031 13.304688 -8.914062 13.109375 -8.4375 C 12.921875 -7.96875 12.648438 -7.554688 12.296875 -7.203125 C 11.953125 -6.859375 11.539062 -6.570312 11.0625 -6.34375 C 10.582031 -6.125 10.0625 -5.96875 9.5 -5.875 L 13.921875 0 L 11.921875 0 L 7.765625 -5.578125 L 3.65625 -5.578125 L 3.65625 0 L 2.03125 0 Z M 8.0625 -7.046875 C 8.601562 -7.046875 9.097656 -7.113281 9.546875 -7.25 C 9.992188 -7.382812 10.378906 -7.578125 10.703125 -7.828125 C 11.035156 -8.085938 11.296875 -8.394531 11.484375 -8.75 C 11.671875 -9.113281 11.765625 -9.53125 11.765625 -10 L 11.765625 -10.046875 C 11.765625 -10.929688 11.441406 -11.625 10.796875 -12.125 C 10.148438 -12.625 9.25 -12.875 8.09375 -12.875 L 3.65625 -12.875 L 3.65625 -7.046875 Z M 8.0625 -7.046875 "/></g></g></g><path fill="#fefce3" d="M 76.738281 168.726562 C 92.03125 168.726562 106.992188 164.089844 119.558594 155.347656 C 85.402344 165.796875 49.25 146.566406 38.800781 112.40625 C 28.351562 78.25 47.542969 42.101562 81.699219 31.648438 C 94.023438 27.867188 107.195312 27.867188 119.558594 31.648438 C 106.992188 22.90625 92.03125 18.230469 76.738281 18.273438 C 35.183594 18.273438 1.511719 51.941406 1.511719 93.5 C 1.511719 135.058594 35.183594 168.726562 76.738281 168.726562 Z M 76.738281 168.726562 " fill-opacity="1" fill-rule="nonzero"/><g clip-path="url(#7c2a0afbe9)"><path fill="#fefce3" d="M 76.863281 17.253906 C 92.394531 17.253906 107.359375 21.929688 120.167969 30.835938 C 120.574219 31.121094 120.738281 31.648438 120.492188 32.097656 C 120.289062 32.542969 119.761719 32.789062 119.273438 32.625 C 107.074219 28.886719 94.226562 28.886719 82.027344 32.625 C 65.761719 37.585938 52.421875 48.605469 44.453125 63.613281 C 36.484375 78.617188 34.816406 95.859375 39.777344 112.121094 C 44.738281 128.386719 55.757812 141.726562 70.761719 149.695312 C 85.765625 157.707031 103.007812 159.332031 119.273438 154.371094 C 119.761719 154.210938 120.25 154.453125 120.492188 154.902344 C 120.695312 155.347656 120.574219 155.875 120.167969 156.160156 C 107.359375 165.066406 92.394531 169.742188 76.863281 169.742188 C 76.820312 169.742188 76.78125 169.742188 76.78125 169.742188 C 34.734375 169.742188 0.535156 135.546875 0.535156 93.5 C 0.535156 51.453125 34.695312 17.253906 76.738281 17.253906 C 76.78125 17.253906 76.820312 17.253906 76.863281 17.253906 Z M 113.621094 29.089844 C 102.4375 22.664062 89.832031 19.289062 76.820312 19.289062 C 76.78125 19.289062 76.738281 19.289062 76.738281 19.289062 C 35.832031 19.289062 2.527344 52.589844 2.527344 93.5 C 2.527344 134.40625 35.832031 167.710938 76.738281 167.710938 C 76.738281 167.710938 76.820312 167.710938 76.820312 167.710938 C 89.832031 167.710938 102.4375 164.335938 113.621094 157.910156 C 98.738281 160.960938 83.410156 158.722656 69.785156 151.527344 C 54.292969 143.3125 42.949219 129.527344 37.785156 112.734375 C 32.660156 95.9375 34.367188 78.167969 42.582031 62.675781 C 50.796875 47.183594 64.582031 35.839844 81.375 30.675781 C 91.949219 27.460938 102.96875 26.933594 113.621094 29.089844 Z M 113.621094 29.089844 " fill-opacity="1" fill-rule="nonzero"/></g><g fill="#fefce3" fill-opacity="1"><g transform="translate(110.433582, 89.517368)"><g><path d="M 25.15625 0 L 2.265625 0 L 2.359375 -0.546875 C 3.867188 -0.546875 4.972656 -0.832031 5.671875 -1.40625 C 6.429688 -2.039062 6.8125 -4.992188 6.8125 -10.265625 L 6.8125 -21.515625 C 6.8125 -24.753906 6.710938 -26.972656 6.515625 -28.171875 C 6.316406 -29.367188 6.035156 -30.117188 5.671875 -30.421875 C 4.972656 -30.992188 3.867188 -31.28125 2.359375 -31.28125 L 2.265625 -31.78125 L 23.46875 -31.78125 L 23.46875 -25.25 L 22.9375 -25.34375 C 22.9375 -27.363281 21.867188 -28.765625 19.734375 -29.546875 C 17.597656 -30.335938 14.332031 -30.734375 9.9375 -30.734375 L 9.9375 -16.4375 C 12.84375 -16.4375 14.929688 -16.585938 16.203125 -16.890625 C 17.472656 -17.191406 18.289062 -17.648438 18.65625 -18.265625 C 19.019531 -18.890625 19.203125 -19.929688 19.203125 -21.390625 L 19.703125 -21.484375 L 19.703125 -10.4375 L 19.203125 -10.53125 C 19.203125 -12.019531 19.019531 -13.066406 18.65625 -13.671875 C 18.289062 -14.273438 17.472656 -14.71875 16.203125 -15 C 14.929688 -15.289062 12.84375 -15.4375 9.9375 -15.4375 L 9.9375 -9.578125 C 9.9375 -6.367188 10.050781 -4.234375 10.28125 -3.171875 C 10.507812 -2.117188 11.019531 -1.410156 11.8125 -1.046875 C 20.34375 -1.046875 24.609375 -2.863281 24.609375 -6.5 L 25.15625 -6.578125 Z M 25.15625 0 "/></g></g></g><g fill="#fefce3" fill-opacity="1"><g transform="translate(138.398714, 89.517368)"><g><path d="M 9.265625 -29.8125 C 9.265625 -29.28125 9.300781 -28.867188 9.375 -28.578125 C 9.445312 -28.296875 9.503906 -28.0625 9.546875 -27.875 C 9.597656 -27.695312 9.671875 -27.445312 9.765625 -27.125 C 9.859375 -26.8125 9.941406 -26.539062 10.015625 -26.3125 C 10.085938 -26.082031 10.195312 -25.753906 10.34375 -25.328125 C 10.5 -24.910156 10.628906 -24.566406 10.734375 -24.296875 C 10.835938 -24.023438 10.988281 -23.613281 11.1875 -23.0625 C 11.382812 -22.519531 11.546875 -22.082031 11.671875 -21.75 L 18.75 -2.453125 L 25.46875 -21.75 C 26.800781 -25.59375 27.46875 -28 27.46875 -28.96875 C 27.46875 -29.9375 27.207031 -30.554688 26.6875 -30.828125 C 26.175781 -31.097656 25.285156 -31.234375 24.015625 -31.234375 L 23.921875 -31.78125 L 35.046875 -31.78125 L 34.96875 -31.234375 C 33.8125 -31.234375 32.9375 -31.15625 32.34375 -31 C 31.757812 -30.851562 31.140625 -30.445312 30.484375 -29.78125 C 29.835938 -29.113281 29.238281 -28.175781 28.6875 -26.96875 C 28.144531 -25.757812 27.484375 -24.019531 26.703125 -21.75 L 19.078125 0.234375 L 16.203125 0.234375 L 8.171875 -21.75 C 6.472656 -26.289062 5.28125 -28.96875 4.59375 -29.78125 C 4.3125 -30.113281 3.9375 -30.414062 3.46875 -30.6875 C 3 -30.96875 2.546875 -31.128906 2.109375 -31.171875 C 1.671875 -31.210938 1.070312 -31.234375 0.3125 -31.234375 L 0.234375 -31.78125 L 12.484375 -31.78125 L 12.390625 -31.234375 C 11.242188 -31.234375 10.4375 -31.128906 9.96875 -30.921875 C 9.5 -30.710938 9.265625 -30.34375 9.265625 -29.8125 Z M 9.265625 -29.8125 "/></g></g></g><g fill="#fefce3" fill-opacity="1"><g transform="translate(173.672926, 89.517368)"><g><path d="M 25.15625 0 L 2.265625 0 L 2.359375 -0.546875 C 3.867188 -0.546875 4.972656 -0.832031 5.671875 -1.40625 C 6.429688 -2.039062 6.8125 -4.992188 6.8125 -10.265625 L 6.8125 -21.515625 C 6.8125 -24.753906 6.710938 -26.972656 6.515625 -28.171875 C 6.316406 -29.367188 6.035156 -30.117188 5.671875 -30.421875 C 4.972656 -30.992188 3.867188 -31.28125 2.359375 -31.28125 L 2.265625 -31.78125 L 23.46875 -31.78125 L 23.46875 -25.25 L 22.9375 -25.34375 C 22.9375 -27.363281 21.867188 -28.765625 19.734375 -29.546875 C 17.597656 -30.335938 14.332031 -30.734375 9.9375 -30.734375 L 9.9375 -16.4375 C 12.84375 -16.4375 14.929688 -16.585938 16.203125 -16.890625 C 17.472656 -17.191406 18.289062 -17.648438 18.65625 -18.265625 C 19.019531 -18.890625 19.203125 -19.929688 19.203125 -21.390625 L 19.703125 -21.484375 L 19.703125 -10.4375 L 19.203125 -10.53125 C 19.203125 -12.019531 19.019531 -13.066406 18.65625 -13.671875 C 18.289062 -14.273438 17.472656 -14.71875 16.203125 -15 C 14.929688 -15.289062 12.84375 -15.4375 9.9375 -15.4375 L 9.9375 -9.578125 C 9.9375 -6.367188 10.050781 -4.234375 10.28125 -3.171875 C 10.507812 -2.117188 11.019531 -1.410156 11.8125 -1.046875 C 20.34375 -1.046875 24.609375 -2.863281 24.609375 -6.5 L 25.15625 -6.578125 Z M 25.15625 0 "/></g></g></g><g fill="#fefce3" fill-opacity="1"><g transform="translate(201.638059, 89.517368)"><g><path d="M 25.46875 0 C 24.71875 0 23.96875 -0.382812 23.21875 -1.15625 C 22.476562 -1.925781 21.8125 -2.882812 21.21875 -4.03125 C 20.632812 -5.1875 19.945312 -6.4375 19.15625 -7.78125 C 18.375 -9.132812 17.585938 -10.398438 16.796875 -11.578125 C 16.015625 -12.753906 15.015625 -13.75 13.796875 -14.5625 C 12.585938 -15.382812 11.300781 -15.828125 9.9375 -15.890625 L 9.9375 -10.265625 C 9.9375 -6.992188 10.035156 -4.773438 10.234375 -3.609375 C 10.429688 -2.441406 10.710938 -1.707031 11.078125 -1.40625 C 11.804688 -0.832031 12.925781 -0.546875 14.4375 -0.546875 L 14.53125 0 L 2.359375 0 L 2.453125 -0.546875 C 3.929688 -0.546875 5.019531 -0.816406 5.71875 -1.359375 C 6.289062 -1.816406 6.625 -3.300781 6.71875 -5.8125 C 6.78125 -6.8125 6.8125 -8.296875 6.8125 -10.265625 L 6.8125 -21.75 C 6.8125 -25.113281 6.71875 -27.335938 6.53125 -28.421875 C 6.351562 -29.515625 6.082031 -30.195312 5.71875 -30.46875 C 5.019531 -30.976562 3.929688 -31.234375 2.453125 -31.234375 L 2.359375 -31.78125 L 12.890625 -31.78125 C 20.523438 -31.78125 24.34375 -29.207031 24.34375 -24.0625 C 24.34375 -21.851562 23.5625 -20 22 -18.5 C 20.4375 -17 18.550781 -16.128906 16.34375 -15.890625 C 18.550781 -14.585938 20.59375 -12.195312 22.46875 -8.71875 C 23.195312 -7.351562 23.972656 -6.050781 24.796875 -4.8125 C 26.578125 -1.96875 28.875 -0.546875 31.6875 -0.546875 L 31.78125 0 Z M 9.9375 -30.734375 L 9.9375 -16.796875 L 12.796875 -16.796875 C 15.097656 -16.796875 17.003906 -17.382812 18.515625 -18.5625 C 20.035156 -19.75 20.796875 -21.507812 20.796875 -23.84375 C 20.796875 -28.4375 18.160156 -30.734375 12.890625 -30.734375 Z M 9.9375 -30.734375 "/></g></g></g><g fill="#fefce3" fill-opacity="1"><g transform="translate(231.146723, 89.517368)"><g><path d="M 18.609375 -10.265625 C 18.609375 -5.785156 18.867188 -3.0625 19.390625 -2.09375 C 19.566406 -1.726562 19.878906 -1.40625 20.328125 -1.125 C 20.785156 -0.851562 21.269531 -0.6875 21.78125 -0.625 C 22.300781 -0.570312 23.015625 -0.546875 23.921875 -0.546875 L 24.015625 0 L 10.03125 0 L 10.125 -0.546875 C 11.03125 -0.546875 11.75 -0.566406 12.28125 -0.609375 C 12.8125 -0.660156 13.296875 -0.835938 13.734375 -1.140625 C 14.171875 -1.441406 14.488281 -1.757812 14.6875 -2.09375 C 14.882812 -2.425781 15.046875 -3.015625 15.171875 -3.859375 C 15.347656 -4.890625 15.4375 -7.023438 15.4375 -10.265625 L 15.4375 -13.125 L 10.359375 -21.703125 C 8.929688 -24.128906 7.867188 -25.894531 7.171875 -27 C 6.472656 -28.101562 5.757812 -29.015625 5.03125 -29.734375 C 4.3125 -30.460938 3.71875 -30.894531 3.25 -31.03125 C 2.78125 -31.164062 2.09375 -31.234375 1.1875 -31.234375 L 1.09375 -31.78125 L 12.390625 -31.78125 L 12.3125 -31.234375 C 11.3125 -31.234375 10.601562 -31.164062 10.1875 -31.03125 C 9.78125 -30.894531 9.578125 -30.585938 9.578125 -30.109375 C 9.578125 -29.554688 9.765625 -28.929688 10.140625 -28.234375 C 10.523438 -27.546875 10.773438 -27.078125 10.890625 -26.828125 C 11.015625 -26.585938 11.210938 -26.234375 11.484375 -25.765625 C 11.753906 -25.296875 11.984375 -24.910156 12.171875 -24.609375 C 12.984375 -23.160156 13.539062 -22.191406 13.84375 -21.703125 L 17.9375 -14.671875 L 21.4375 -21.703125 C 23.519531 -26.003906 24.5625 -28.671875 24.5625 -29.703125 C 24.5625 -30.359375 24.34375 -30.773438 23.90625 -30.953125 C 23.46875 -31.140625 22.671875 -31.234375 21.515625 -31.234375 L 21.4375 -31.78125 L 31.609375 -31.78125 L 31.515625 -31.234375 C 30.085938 -31.234375 28.890625 -30.992188 27.921875 -30.515625 C 27.191406 -30.148438 26.164062 -28.710938 24.84375 -26.203125 C 24.320312 -25.234375 23.5625 -23.734375 22.5625 -21.703125 L 18.609375 -13.625 Z M 18.609375 -10.265625 "/></g></g></g><g fill="#fefce3" fill-opacity="1"><g transform="translate(263.878639, 89.517368)"><g/></g></g><g fill="#fefce3" fill-opacity="1"><g transform="translate(275.228131, 89.517368)"><g><path d="M 11.4375 -31.78125 C 16.644531 -31.78125 20.550781 -31.328125 23.15625 -30.421875 C 24.332031 -29.992188 25.585938 -29.382812 26.921875 -28.59375 C 28.253906 -27.8125 29.335938 -26.875 30.171875 -25.78125 C 31.003906 -24.695312 31.695312 -23.304688 32.25 -21.609375 C 32.8125 -19.921875 33.09375 -18.023438 33.09375 -15.921875 C 33.09375 -13.816406 32.8125 -11.921875 32.25 -10.234375 C 31.695312 -8.554688 31.003906 -7.171875 30.171875 -6.078125 C 29.335938 -4.992188 28.304688 -4.050781 27.078125 -3.25 C 25.859375 -2.445312 24.703125 -1.847656 23.609375 -1.453125 C 22.523438 -1.054688 21.316406 -0.738281 19.984375 -0.5 C 18.191406 -0.164062 16.359375 0 14.484375 0 L 2.265625 0 L 2.359375 -0.546875 C 3.867188 -0.546875 4.972656 -0.832031 5.671875 -1.40625 C 6.429688 -2.039062 6.8125 -4.992188 6.8125 -10.265625 L 6.8125 -21.515625 C 6.8125 -24.753906 6.710938 -26.972656 6.515625 -28.171875 C 6.316406 -29.367188 6.035156 -30.117188 5.671875 -30.421875 C 4.972656 -30.992188 3.867188 -31.28125 2.359375 -31.28125 L 2.265625 -31.78125 Z M 11.671875 -1.09375 C 12.035156 -1.0625 12.785156 -1.046875 13.921875 -1.046875 C 15.054688 -1.046875 16.296875 -1.164062 17.640625 -1.40625 C 18.984375 -1.644531 20.375 -2.101562 21.8125 -2.78125 C 23.25 -3.46875 24.488281 -4.34375 25.53125 -5.40625 C 26.582031 -6.46875 27.445312 -7.894531 28.125 -9.6875 C 28.8125 -11.488281 29.15625 -13.546875 29.15625 -15.859375 C 29.15625 -18.179688 28.820312 -20.234375 28.15625 -22.015625 C 27.488281 -23.804688 26.625 -25.238281 25.5625 -26.3125 C 24.5 -27.382812 23.257812 -28.269531 21.84375 -28.96875 C 19.332031 -30.144531 16.5625 -30.734375 13.53125 -30.734375 C 12.164062 -30.734375 10.984375 -30.644531 9.984375 -30.46875 L 9.984375 -9.71875 C 9.984375 -6.445312 10.070312 -4.28125 10.25 -3.21875 C 10.4375 -2.164062 10.910156 -1.457031 11.671875 -1.09375 Z M 11.671875 -1.09375 "/></g></g></g><g fill="#fefce3" fill-opacity="1"><g transform="translate(309.912164, 89.517368)"><g><path d="M 20.109375 -0.546875 C 21.265625 -0.546875 22.078125 -0.632812 22.546875 -0.8125 C 23.015625 -1 23.25 -1.46875 23.25 -2.21875 C 23.25 -2.976562 22.445312 -5.550781 20.84375 -9.9375 L 7 -9.9375 C 5.695312 -6.09375 5.046875 -3.675781 5.046875 -2.6875 C 5.046875 -1.707031 5.289062 -1.101562 5.78125 -0.875 C 6.28125 -0.65625 7.179688 -0.546875 8.484375 -0.546875 L 8.578125 0 L -1.640625 0 L -1.546875 -0.546875 C -0.671875 -0.546875 0.015625 -0.617188 0.515625 -0.765625 C 1.015625 -0.921875 1.5625 -1.320312 2.15625 -1.96875 C 2.75 -2.625 3.316406 -3.570312 3.859375 -4.8125 C 4.398438 -6.050781 5.050781 -7.789062 5.8125 -10.03125 L 9.859375 -21.703125 C 11.273438 -25.816406 11.984375 -28.3125 11.984375 -29.1875 C 11.984375 -30.070312 11.769531 -30.640625 11.34375 -30.890625 C 10.925781 -31.148438 10.113281 -31.28125 8.90625 -31.28125 L 8.8125 -31.78125 L 16.296875 -31.78125 L 24.34375 -10.03125 C 25.695312 -6.425781 26.609375 -4.140625 27.078125 -3.171875 C 27.546875 -2.203125 27.992188 -1.582031 28.421875 -1.3125 C 29.179688 -0.800781 30.132812 -0.546875 31.28125 -0.546875 L 31.375 0 L 20.03125 0 Z M 13.765625 -29.328125 L 7.359375 -11.03125 L 20.484375 -11.03125 Z M 13.765625 -29.328125 "/></g></g></g><g fill="#fefce3" fill-opacity="1"><g transform="translate(339.647821, 89.517368)"><g><path d="M 18.609375 -10.265625 C 18.609375 -5.785156 18.867188 -3.0625 19.390625 -2.09375 C 19.566406 -1.726562 19.878906 -1.40625 20.328125 -1.125 C 20.785156 -0.851562 21.269531 -0.6875 21.78125 -0.625 C 22.300781 -0.570312 23.015625 -0.546875 23.921875 -0.546875 L 24.015625 0 L 10.03125 0 L 10.125 -0.546875 C 11.03125 -0.546875 11.75 -0.566406 12.28125 -0.609375 C 12.8125 -0.660156 13.296875 -0.835938 13.734375 -1.140625 C 14.171875 -1.441406 14.488281 -1.757812 14.6875 -2.09375 C 14.882812 -2.425781 15.046875 -3.015625 15.171875 -3.859375 C 15.347656 -4.890625 15.4375 -7.023438 15.4375 -10.265625 L 15.4375 -13.125 L 10.359375 -21.703125 C 8.929688 -24.128906 7.867188 -25.894531 7.171875 -27 C 6.472656 -28.101562 5.757812 -29.015625 5.03125 -29.734375 C 4.3125 -30.460938 3.71875 -30.894531 3.25 -31.03125 C 2.78125 -31.164062 2.09375 -31.234375 1.1875 -31.234375 L 1.09375 -31.78125 L 12.390625 -31.78125 L 12.3125 -31.234375 C 11.3125 -31.234375 10.601562 -31.164062 10.1875 -31.03125 C 9.78125 -30.894531 9.578125 -30.585938 9.578125 -30.109375 C 9.578125 -29.554688 9.765625 -28.929688 10.140625 -28.234375 C 10.523438 -27.546875 10.773438 -27.078125 10.890625 -26.828125 C 11.015625 -26.585938 11.210938 -26.234375 11.484375 -25.765625 C 11.753906 -25.296875 11.984375 -24.910156 12.171875 -24.609375 C 12.984375 -23.160156 13.539062 -22.191406 13.84375 -21.703125 L 17.9375 -14.671875 L 21.4375 -21.703125 C 23.519531 -26.003906 24.5625 -28.671875 24.5625 -29.703125 C 24.5625 -30.359375 24.34375 -30.773438 23.90625 -30.953125 C 23.46875 -31.140625 22.671875 -31.234375 21.515625 -31.234375 L 21.4375 -31.78125 L 31.609375 -31.78125 L 31.515625 -31.234375 C 30.085938 -31.234375 28.890625 -30.992188 27.921875 -30.515625 C 27.191406 -30.148438 26.164062 -28.710938 24.84375 -26.203125 C 24.320312 -25.234375 23.5625 -23.734375 22.5625 -21.703125 L 18.609375 -13.625 Z M 18.609375 -10.265625 "/></g></g></g></svg>