<svg xmlns="http://www.w3.org/2000/svg" xmlns:xlink="http://www.w3.org/1999/xlink" width="500" zoomAndPan="magnify" viewBox="0 0 375 374.999991" height="500" preserveAspectRatio="xMidYMid meet" version="1.0"><defs><g/><clipPath id="92ad922828"><path d="M 0.210938 9.199219 L 280.710938 9.199219 L 280.710938 365.449219 L 0.210938 365.449219 Z M 0.210938 9.199219 " clip-rule="nonzero"/></clipPath></defs><path stroke-linecap="butt" transform="matrix(0.75, -0.000000000000000279, 0.000000000000000279, 0.75, 116.553748, 199.466764)" fill="none" stroke-linejoin="miter" d="M 0.00125261 0.99744 L 344.595025 0.99744 " stroke="#e5c078" stroke-width="2" stroke-opacity="1" stroke-miterlimit="4"/><path fill="#fefce3" d="M 177.9375 363.074219 C 213.625 363.074219 248.546875 352.257812 277.875 331.851562 C 198.152344 356.242188 113.78125 311.351562 89.390625 231.628906 C 65 151.910156 109.796875 67.539062 189.515625 43.148438 C 218.273438 34.320312 249.023438 34.320312 277.875 43.148438 C 248.546875 22.742188 213.625 11.828125 177.9375 11.921875 C 80.945312 11.921875 2.363281 90.503906 2.363281 187.5 C 2.363281 284.492188 80.945312 363.074219 177.9375 363.074219 Z M 177.9375 363.074219 " fill-opacity="1" fill-rule="nonzero"/><g clip-path="url(#92ad922828)"><path fill="#fefce3" d="M 178.222656 9.550781 C 214.476562 9.550781 249.402344 20.464844 279.296875 41.25 C 280.246094 41.914062 280.625 43.148438 280.058594 44.191406 C 279.582031 45.234375 278.347656 45.804688 277.210938 45.425781 C 248.738281 36.691406 218.746094 36.691406 190.277344 45.425781 C 152.3125 57.003906 121.183594 82.722656 102.582031 117.742188 C 83.980469 152.761719 80.089844 193.003906 91.667969 230.964844 C 103.246094 268.929688 128.964844 300.058594 163.988281 318.660156 C 199.007812 337.355469 239.246094 341.152344 277.210938 329.574219 C 278.347656 329.195312 279.488281 329.761719 280.058594 330.808594 C 280.53125 331.851562 280.246094 333.085938 279.296875 333.75 C 249.402344 354.535156 214.476562 365.449219 178.222656 365.449219 C 178.128906 365.449219 178.035156 365.449219 178.035156 365.449219 C 79.898438 365.449219 0.0859375 285.632812 0.0859375 187.5 C 0.0859375 89.367188 79.804688 9.550781 177.9375 9.550781 C 178.035156 9.550781 178.128906 9.550781 178.222656 9.550781 Z M 264.019531 37.167969 C 237.917969 22.171875 208.5 14.296875 178.128906 14.296875 C 178.035156 14.296875 177.9375 14.296875 177.9375 14.296875 C 82.460938 14.296875 4.734375 92.023438 4.734375 187.5 C 4.734375 282.976562 82.460938 360.703125 177.9375 360.703125 C 177.9375 360.703125 178.128906 360.703125 178.128906 360.703125 C 208.5 360.703125 237.917969 352.824219 264.019531 337.832031 C 229.28125 344.949219 193.503906 339.730469 161.710938 322.929688 C 125.550781 303.757812 99.070312 271.585938 87.019531 232.390625 C 75.058594 193.195312 79.046875 151.71875 98.21875 115.558594 C 117.386719 79.402344 149.5625 52.921875 188.757812 40.867188 C 213.433594 33.371094 239.152344 32.136719 264.019531 37.167969 Z M 264.019531 37.167969 " fill-opacity="1" fill-rule="nonzero"/></g><g fill="#fefce3" fill-opacity="1"><g transform="translate(124.930248, 228.737595)"><g><path d="M 11.5 -7.484375 C 12.457031 -7.273438 13.195312 -6.863281 13.71875 -6.25 C 14.238281 -5.632812 14.5 -4.84375 14.5 -3.875 C 14.5 -2.632812 14.035156 -1.675781 13.109375 -1 C 12.191406 -0.332031 10.835938 0 9.046875 0 L 2.359375 0 L 2.359375 -14.515625 L 8.625 -14.515625 C 10.238281 -14.515625 11.488281 -14.1875 12.375 -13.53125 C 13.269531 -12.882812 13.71875 -11.96875 13.71875 -10.78125 C 13.71875 -9.976562 13.519531 -9.296875 13.125 -8.734375 C 12.738281 -8.179688 12.195312 -7.765625 11.5 -7.484375 Z M 3.890625 -13.25 L 3.890625 -7.984375 L 8.515625 -7.984375 C 9.691406 -7.984375 10.597656 -8.207031 11.234375 -8.65625 C 11.867188 -9.101562 12.1875 -9.753906 12.1875 -10.609375 C 12.1875 -11.472656 11.867188 -12.128906 11.234375 -12.578125 C 10.597656 -13.023438 9.691406 -13.25 8.515625 -13.25 Z M 9.015625 -1.265625 C 10.316406 -1.265625 11.296875 -1.484375 11.953125 -1.921875 C 12.617188 -2.367188 12.953125 -3.0625 12.953125 -4 C 12.953125 -5.8125 11.640625 -6.71875 9.015625 -6.71875 L 3.890625 -6.71875 L 3.890625 -1.265625 Z M 9.015625 -1.265625 "/></g></g></g><g fill="#fefce3" fill-opacity="1"><g transform="translate(144.321175, 228.737595)"><g><path d="M 12.625 -1.328125 L 12.625 0 L 2.359375 0 L 2.359375 -14.515625 L 12.3125 -14.515625 L 12.3125 -13.1875 L 3.890625 -13.1875 L 3.890625 -8.03125 L 11.40625 -8.03125 L 11.40625 -6.71875 L 3.890625 -6.71875 L 3.890625 -1.328125 Z M 12.625 -1.328125 "/></g></g></g><g fill="#fefce3" fill-opacity="1"><g transform="translate(161.949441, 228.737595)"><g><path d="M 5.1875 -13.1875 L 0.078125 -13.1875 L 0.078125 -14.515625 L 11.8125 -14.515625 L 11.8125 -13.1875 L 6.71875 -13.1875 L 6.71875 0 L 5.1875 0 Z M 5.1875 -13.1875 "/></g></g></g><g fill="#fefce3" fill-opacity="1"><g transform="translate(177.607677, 228.737595)"><g><path d="M 5.1875 -13.1875 L 0.078125 -13.1875 L 0.078125 -14.515625 L 11.8125 -14.515625 L 11.8125 -13.1875 L 6.71875 -13.1875 L 6.71875 0 L 5.1875 0 Z M 5.1875 -13.1875 "/></g></g></g><g fill="#fefce3" fill-opacity="1"><g transform="translate(193.265913, 228.737595)"><g><path d="M 12.625 -1.328125 L 12.625 0 L 2.359375 0 L 2.359375 -14.515625 L 12.3125 -14.515625 L 12.3125 -13.1875 L 3.890625 -13.1875 L 3.890625 -8.03125 L 11.40625 -8.03125 L 11.40625 -6.71875 L 3.890625 -6.71875 L 3.890625 -1.328125 Z M 12.625 -1.328125 "/></g></g></g><g fill="#fefce3" fill-opacity="1"><g transform="translate(210.894182, 228.737595)"><g><path d="M 12.28125 0 L 8.953125 -4.671875 C 8.578125 -4.628906 8.191406 -4.609375 7.796875 -4.609375 L 3.890625 -4.609375 L 3.890625 0 L 2.359375 0 L 2.359375 -14.515625 L 7.796875 -14.515625 C 9.648438 -14.515625 11.097656 -14.070312 12.140625 -13.1875 C 13.191406 -12.300781 13.71875 -11.082031 13.71875 -9.53125 C 13.71875 -8.40625 13.429688 -7.453125 12.859375 -6.671875 C 12.285156 -5.890625 11.46875 -5.320312 10.40625 -4.96875 L 13.953125 0 Z M 7.75 -5.90625 C 9.1875 -5.90625 10.285156 -6.222656 11.046875 -6.859375 C 11.804688 -7.492188 12.1875 -8.382812 12.1875 -9.53125 C 12.1875 -10.707031 11.804688 -11.609375 11.046875 -12.234375 C 10.285156 -12.867188 9.1875 -13.1875 7.75 -13.1875 L 3.890625 -13.1875 L 3.890625 -5.90625 Z M 7.75 -5.90625 "/></g></g></g><g fill="#fefce3" fill-opacity="1"><g transform="translate(229.642259, 228.737595)"><g/></g></g><g fill="#fefce3" fill-opacity="1"><g transform="translate(238.830504, 228.737595)"><g><path d="M 12.75 0.234375 L 10.734375 -1.84375 C 9.503906 -0.53125 7.890625 0.125 5.890625 0.125 C 4.953125 0.125 4.113281 -0.03125 3.375 -0.34375 C 2.632812 -0.65625 2.054688 -1.085938 1.640625 -1.640625 C 1.222656 -2.203125 1.015625 -2.84375 1.015625 -3.5625 C 1.015625 -4.4375 1.289062 -5.21875 1.84375 -5.90625 C 2.394531 -6.601562 3.335938 -7.332031 4.671875 -8.09375 C 3.972656 -8.8125 3.492188 -9.421875 3.234375 -9.921875 C 2.972656 -10.421875 2.84375 -10.957031 2.84375 -11.53125 C 2.84375 -12.457031 3.171875 -13.203125 3.828125 -13.765625 C 4.492188 -14.335938 5.390625 -14.625 6.515625 -14.625 C 7.546875 -14.625 8.363281 -14.363281 8.96875 -13.84375 C 9.582031 -13.332031 9.890625 -12.628906 9.890625 -11.734375 C 9.890625 -11.015625 9.644531 -10.367188 9.15625 -9.796875 C 8.675781 -9.222656 7.84375 -8.59375 6.65625 -7.90625 L 10.640625 -3.796875 C 11.078125 -4.578125 11.398438 -5.507812 11.609375 -6.59375 L 12.8125 -6.21875 C 12.550781 -4.914062 12.125 -3.800781 11.53125 -2.875 L 13.609375 -0.75 Z M 6.515625 -13.515625 C 5.796875 -13.515625 5.226562 -13.332031 4.8125 -12.96875 C 4.40625 -12.613281 4.203125 -12.140625 4.203125 -11.546875 C 4.203125 -11.117188 4.3125 -10.710938 4.53125 -10.328125 C 4.757812 -9.941406 5.195312 -9.414062 5.84375 -8.75 C 6.894531 -9.351562 7.617188 -9.867188 8.015625 -10.296875 C 8.421875 -10.734375 8.625 -11.207031 8.625 -11.71875 C 8.625 -12.269531 8.4375 -12.707031 8.0625 -13.03125 C 7.6875 -13.351562 7.171875 -13.515625 6.515625 -13.515625 Z M 5.96875 -1.09375 C 7.570312 -1.09375 8.875 -1.640625 9.875 -2.734375 L 5.5 -7.234375 C 4.351562 -6.585938 3.5625 -6 3.125 -5.46875 C 2.6875 -4.945312 2.46875 -4.363281 2.46875 -3.71875 C 2.46875 -2.925781 2.785156 -2.289062 3.421875 -1.8125 C 4.066406 -1.332031 4.914062 -1.09375 5.96875 -1.09375 Z M 5.96875 -1.09375 "/></g></g></g><g fill="#fefce3" fill-opacity="1"><g transform="translate(256.458774, 228.737595)"><g/></g></g><g fill="#fefce3" fill-opacity="1"><g transform="translate(265.647019, 228.737595)"><g><path d="M 11.5 -7.484375 C 12.457031 -7.273438 13.195312 -6.863281 13.71875 -6.25 C 14.238281 -5.632812 14.5 -4.84375 14.5 -3.875 C 14.5 -2.632812 14.035156 -1.675781 13.109375 -1 C 12.191406 -0.332031 10.835938 0 9.046875 0 L 2.359375 0 L 2.359375 -14.515625 L 8.625 -14.515625 C 10.238281 -14.515625 11.488281 -14.1875 12.375 -13.53125 C 13.269531 -12.882812 13.71875 -11.96875 13.71875 -10.78125 C 13.71875 -9.976562 13.519531 -9.296875 13.125 -8.734375 C 12.738281 -8.179688 12.195312 -7.765625 11.5 -7.484375 Z M 3.890625 -13.25 L 3.890625 -7.984375 L 8.515625 -7.984375 C 9.691406 -7.984375 10.597656 -8.207031 11.234375 -8.65625 C 11.867188 -9.101562 12.1875 -9.753906 12.1875 -10.609375 C 12.1875 -11.472656 11.867188 -12.128906 11.234375 -12.578125 C 10.597656 -13.023438 9.691406 -13.25 8.515625 -13.25 Z M 9.015625 -1.265625 C 10.316406 -1.265625 11.296875 -1.484375 11.953125 -1.921875 C 12.617188 -2.367188 12.953125 -3.0625 12.953125 -4 C 12.953125 -5.8125 11.640625 -6.71875 9.015625 -6.71875 L 3.890625 -6.71875 L 3.890625 -1.265625 Z M 9.015625 -1.265625 "/></g></g></g><g fill="#fefce3" fill-opacity="1"><g transform="translate(285.037948, 228.737595)"><g><path d="M 12.625 -1.328125 L 12.625 0 L 2.359375 0 L 2.359375 -14.515625 L 12.3125 -14.515625 L 12.3125 -13.1875 L 3.890625 -13.1875 L 3.890625 -8.03125 L 11.40625 -8.03125 L 11.40625 -6.71875 L 3.890625 -6.71875 L 3.890625 -1.328125 Z M 12.625 -1.328125 "/></g></g></g><g fill="#fefce3" fill-opacity="1"><g transform="translate(302.666218, 228.737595)"><g><path d="M 5.1875 -13.1875 L 0.078125 -13.1875 L 0.078125 -14.515625 L 11.8125 -14.515625 L 11.8125 -13.1875 L 6.71875 -13.1875 L 6.71875 0 L 5.1875 0 Z M 5.1875 -13.1875 "/></g></g></g><g fill="#fefce3" fill-opacity="1"><g transform="translate(318.324457, 228.737595)"><g><path d="M 5.1875 -13.1875 L 0.078125 -13.1875 L 0.078125 -14.515625 L 11.8125 -14.515625 L 11.8125 -13.1875 L 6.71875 -13.1875 L 6.71875 0 L 5.1875 0 Z M 5.1875 -13.1875 "/></g></g></g><g fill="#fefce3" fill-opacity="1"><g transform="translate(333.982696, 228.737595)"><g><path d="M 12.625 -1.328125 L 12.625 0 L 2.359375 0 L 2.359375 -14.515625 L 12.3125 -14.515625 L 12.3125 -13.1875 L 3.890625 -13.1875 L 3.890625 -8.03125 L 11.40625 -8.03125 L 11.40625 -6.71875 L 3.890625 -6.71875 L 3.890625 -1.328125 Z M 12.625 -1.328125 "/></g></g></g><g fill="#fefce3" fill-opacity="1"><g transform="translate(351.610953, 228.737595)"><g><path d="M 12.28125 0 L 8.953125 -4.671875 C 8.578125 -4.628906 8.191406 -4.609375 7.796875 -4.609375 L 3.890625 -4.609375 L 3.890625 0 L 2.359375 0 L 2.359375 -14.515625 L 7.796875 -14.515625 C 9.648438 -14.515625 11.097656 -14.070312 12.140625 -13.1875 C 13.191406 -12.300781 13.71875 -11.082031 13.71875 -9.53125 C 13.71875 -8.40625 13.429688 -7.453125 12.859375 -6.671875 C 12.285156 -5.890625 11.46875 -5.320312 10.40625 -4.96875 L 13.953125 0 Z M 7.75 -5.90625 C 9.1875 -5.90625 10.285156 -6.222656 11.046875 -6.859375 C 11.804688 -7.492188 12.1875 -8.382812 12.1875 -9.53125 C 12.1875 -10.707031 11.804688 -11.609375 11.046875 -12.234375 C 10.285156 -12.867188 9.1875 -13.1875 7.75 -13.1875 L 3.890625 -13.1875 L 3.890625 -5.90625 Z M 7.75 -5.90625 "/></g></g></g><g fill="#fefce3" fill-opacity="1"><g transform="translate(120.102155, 182.885261)"><g><path d="M 24.140625 0 L 2.171875 0 L 2.265625 -0.515625 C 3.710938 -0.515625 4.769531 -0.789062 5.4375 -1.34375 C 6.164062 -1.957031 6.53125 -4.789062 6.53125 -9.84375 L 6.53125 -20.65625 C 6.53125 -23.757812 6.4375 -25.882812 6.25 -27.03125 C 6.0625 -28.175781 5.789062 -28.894531 5.4375 -29.1875 C 4.769531 -29.738281 3.710938 -30.015625 2.265625 -30.015625 L 2.171875 -30.5 L 22.515625 -30.5 L 22.515625 -24.21875 L 22 -24.3125 C 22 -26.25 20.972656 -27.59375 18.921875 -28.34375 C 16.878906 -29.101562 13.753906 -29.484375 9.546875 -29.484375 L 9.546875 -15.765625 C 12.328125 -15.765625 14.328125 -15.910156 15.546875 -16.203125 C 16.765625 -16.492188 17.546875 -16.9375 17.890625 -17.53125 C 18.242188 -18.125 18.421875 -19.117188 18.421875 -20.515625 L 18.90625 -20.609375 L 18.90625 -10.015625 L 18.421875 -10.109375 C 18.421875 -11.523438 18.242188 -12.523438 17.890625 -13.109375 C 17.546875 -13.691406 16.765625 -14.117188 15.546875 -14.390625 C 14.328125 -14.671875 12.328125 -14.8125 9.546875 -14.8125 L 9.546875 -9.1875 C 9.546875 -6.113281 9.648438 -4.066406 9.859375 -3.046875 C 10.078125 -2.035156 10.566406 -1.351562 11.328125 -1 C 19.515625 -1 23.609375 -2.742188 23.609375 -6.234375 L 24.140625 -6.3125 Z M 24.140625 0 "/></g></g></g><g fill="#fefce3" fill-opacity="1"><g transform="translate(146.934211, 182.885261)"><g><path d="M 8.890625 -28.59375 C 8.890625 -28.09375 8.925781 -27.703125 9 -27.421875 C 9.070312 -27.148438 9.128906 -26.925781 9.171875 -26.75 C 9.210938 -26.570312 9.273438 -26.332031 9.359375 -26.03125 C 9.453125 -25.726562 9.535156 -25.46875 9.609375 -25.25 C 9.679688 -25.03125 9.789062 -24.71875 9.9375 -24.3125 C 10.082031 -23.90625 10.203125 -23.566406 10.296875 -23.296875 C 10.398438 -23.035156 10.546875 -22.644531 10.734375 -22.125 C 10.921875 -21.601562 11.078125 -21.179688 11.203125 -20.859375 L 17.984375 -2.359375 L 24.4375 -20.859375 C 25.71875 -24.554688 26.359375 -26.867188 26.359375 -27.796875 C 26.359375 -28.722656 26.109375 -29.316406 25.609375 -29.578125 C 25.117188 -29.835938 24.265625 -29.96875 23.046875 -29.96875 L 22.953125 -30.5 L 33.625 -30.5 L 33.546875 -29.96875 C 32.441406 -29.96875 31.601562 -29.894531 31.03125 -29.75 C 30.46875 -29.601562 29.875 -29.210938 29.25 -28.578125 C 28.625 -27.941406 28.050781 -27.039062 27.53125 -25.875 C 27.007812 -24.71875 26.367188 -23.046875 25.609375 -20.859375 L 18.296875 0.21875 L 15.546875 0.21875 L 7.84375 -20.859375 C 6.21875 -25.222656 5.070312 -27.796875 4.40625 -28.578125 C 4.132812 -28.898438 3.773438 -29.191406 3.328125 -29.453125 C 2.878906 -29.710938 2.441406 -29.863281 2.015625 -29.90625 C 1.597656 -29.945312 1.03125 -29.96875 0.3125 -29.96875 L 0.21875 -30.5 L 11.984375 -30.5 L 11.890625 -29.96875 C 10.785156 -29.96875 10.007812 -29.863281 9.5625 -29.65625 C 9.113281 -29.457031 8.890625 -29.101562 8.890625 -28.59375 Z M 8.890625 -28.59375 "/></g></g></g><g fill="#fefce3" fill-opacity="1"><g transform="translate(180.779195, 182.885261)"><g><path d="M 24.140625 0 L 2.171875 0 L 2.265625 -0.515625 C 3.710938 -0.515625 4.769531 -0.789062 5.4375 -1.34375 C 6.164062 -1.957031 6.53125 -4.789062 6.53125 -9.84375 L 6.53125 -20.65625 C 6.53125 -23.757812 6.4375 -25.882812 6.25 -27.03125 C 6.0625 -28.175781 5.789062 -28.894531 5.4375 -29.1875 C 4.769531 -29.738281 3.710938 -30.015625 2.265625 -30.015625 L 2.171875 -30.5 L 22.515625 -30.5 L 22.515625 -24.21875 L 22 -24.3125 C 22 -26.25 20.972656 -27.59375 18.921875 -28.34375 C 16.878906 -29.101562 13.753906 -29.484375 9.546875 -29.484375 L 9.546875 -15.765625 C 12.328125 -15.765625 14.328125 -15.910156 15.546875 -16.203125 C 16.765625 -16.492188 17.546875 -16.9375 17.890625 -17.53125 C 18.242188 -18.125 18.421875 -19.117188 18.421875 -20.515625 L 18.90625 -20.609375 L 18.90625 -10.015625 L 18.421875 -10.109375 C 18.421875 -11.523438 18.242188 -12.523438 17.890625 -13.109375 C 17.546875 -13.691406 16.765625 -14.117188 15.546875 -14.390625 C 14.328125 -14.671875 12.328125 -14.8125 9.546875 -14.8125 L 9.546875 -9.1875 C 9.546875 -6.113281 9.648438 -4.066406 9.859375 -3.046875 C 10.078125 -2.035156 10.566406 -1.351562 11.328125 -1 C 19.515625 -1 23.609375 -2.742188 23.609375 -6.234375 L 24.140625 -6.3125 Z M 24.140625 0 "/></g></g></g><g fill="#fefce3" fill-opacity="1"><g transform="translate(207.611251, 182.885261)"><g><path d="M 24.4375 0 C 23.707031 0 22.988281 -0.367188 22.28125 -1.109375 C 21.570312 -1.847656 20.929688 -2.769531 20.359375 -3.875 C 19.796875 -4.976562 19.132812 -6.175781 18.375 -7.46875 C 17.625 -8.757812 16.867188 -9.972656 16.109375 -11.109375 C 15.359375 -12.242188 14.398438 -13.203125 13.234375 -13.984375 C 12.078125 -14.765625 10.847656 -15.1875 9.546875 -15.25 L 9.546875 -9.84375 C 9.546875 -6.707031 9.640625 -4.578125 9.828125 -3.453125 C 10.015625 -2.335938 10.28125 -1.632812 10.625 -1.34375 C 11.320312 -0.789062 12.398438 -0.515625 13.859375 -0.515625 L 13.9375 0 L 2.265625 0 L 2.359375 -0.515625 C 3.773438 -0.515625 4.816406 -0.78125 5.484375 -1.3125 C 6.035156 -1.738281 6.359375 -3.160156 6.453125 -5.578125 C 6.503906 -6.535156 6.53125 -7.957031 6.53125 -9.84375 L 6.53125 -20.859375 C 6.53125 -24.085938 6.441406 -26.222656 6.265625 -27.265625 C 6.097656 -28.316406 5.835938 -28.972656 5.484375 -29.234375 C 4.816406 -29.722656 3.773438 -29.96875 2.359375 -29.96875 L 2.265625 -30.5 L 12.375 -30.5 C 19.6875 -30.5 23.34375 -28.03125 23.34375 -23.09375 C 23.34375 -20.96875 22.59375 -19.1875 21.09375 -17.75 C 19.601562 -16.3125 17.800781 -15.476562 15.6875 -15.25 C 17.800781 -14 19.757812 -11.703125 21.5625 -8.359375 C 22.257812 -7.054688 23 -5.8125 23.78125 -4.625 C 25.5 -1.882812 27.707031 -0.515625 30.40625 -0.515625 L 30.5 0 Z M 9.546875 -29.484375 L 9.546875 -16.125 L 12.28125 -16.125 C 14.488281 -16.125 16.316406 -16.6875 17.765625 -17.8125 C 19.222656 -18.945312 19.953125 -20.632812 19.953125 -22.875 C 19.953125 -27.28125 17.425781 -29.484375 12.375 -29.484375 Z M 9.546875 -29.484375 "/></g></g></g><g fill="#fefce3" fill-opacity="1"><g transform="translate(235.924298, 182.885261)"><g><path d="M 17.859375 -9.84375 C 17.859375 -5.539062 18.101562 -2.925781 18.59375 -2 C 18.769531 -1.65625 19.078125 -1.351562 19.515625 -1.09375 C 19.953125 -0.832031 20.414062 -0.671875 20.90625 -0.609375 C 21.40625 -0.546875 22.085938 -0.515625 22.953125 -0.515625 L 23.046875 0 L 9.625 0 L 9.71875 -0.515625 C 10.582031 -0.515625 11.269531 -0.535156 11.78125 -0.578125 C 12.289062 -0.628906 12.753906 -0.800781 13.171875 -1.09375 C 13.597656 -1.382812 13.90625 -1.6875 14.09375 -2 C 14.28125 -2.320312 14.429688 -2.890625 14.546875 -3.703125 C 14.722656 -4.691406 14.8125 -6.738281 14.8125 -9.84375 L 14.8125 -12.59375 L 9.9375 -20.828125 C 8.570312 -23.148438 7.550781 -24.835938 6.875 -25.890625 C 6.207031 -26.953125 5.523438 -27.832031 4.828125 -28.53125 C 4.140625 -29.226562 3.566406 -29.640625 3.109375 -29.765625 C 2.660156 -29.898438 2 -29.96875 1.125 -29.96875 L 1.046875 -30.5 L 11.890625 -30.5 L 11.8125 -29.96875 C 10.851562 -29.96875 10.175781 -29.898438 9.78125 -29.765625 C 9.382812 -29.640625 9.1875 -29.34375 9.1875 -28.875 C 9.1875 -28.351562 9.367188 -27.757812 9.734375 -27.09375 C 10.097656 -26.425781 10.335938 -25.972656 10.453125 -25.734375 C 10.566406 -25.503906 10.753906 -25.164062 11.015625 -24.71875 C 11.273438 -24.269531 11.492188 -23.898438 11.671875 -23.609375 C 12.453125 -22.210938 12.988281 -21.285156 13.28125 -20.828125 L 17.203125 -14.078125 L 20.5625 -20.828125 C 22.5625 -24.953125 23.5625 -27.503906 23.5625 -28.484375 C 23.5625 -29.128906 23.347656 -29.535156 22.921875 -29.703125 C 22.503906 -29.878906 21.75 -29.96875 20.65625 -29.96875 L 20.5625 -30.5 L 30.3125 -30.5 L 30.234375 -29.96875 C 28.867188 -29.96875 27.722656 -29.738281 26.796875 -29.28125 C 26.097656 -28.925781 25.109375 -27.546875 23.828125 -25.140625 C 23.335938 -24.203125 22.613281 -22.765625 21.65625 -20.828125 L 17.859375 -13.0625 Z M 17.859375 -9.84375 "/></g></g></g><g fill="#fefce3" fill-opacity="1"><g transform="translate(267.329997, 182.885261)"><g/></g></g><g fill="#fefce3" fill-opacity="1"><g transform="translate(278.219633, 182.885261)"><g><path d="M 10.984375 -30.5 C 15.972656 -30.5 19.71875 -30.0625 22.21875 -29.1875 C 23.351562 -28.78125 24.554688 -28.195312 25.828125 -27.4375 C 27.109375 -26.6875 28.144531 -25.785156 28.9375 -24.734375 C 29.738281 -23.691406 30.40625 -22.359375 30.9375 -20.734375 C 31.476562 -19.109375 31.75 -17.285156 31.75 -15.265625 C 31.75 -13.242188 31.476562 -11.425781 30.9375 -9.8125 C 30.40625 -8.207031 29.738281 -6.878906 28.9375 -5.828125 C 28.144531 -4.785156 27.160156 -3.878906 25.984375 -3.109375 C 24.804688 -2.335938 23.691406 -1.765625 22.640625 -1.390625 C 21.597656 -1.015625 20.441406 -0.710938 19.171875 -0.484375 C 17.453125 -0.160156 15.691406 0 13.890625 0 L 2.171875 0 L 2.265625 -0.515625 C 3.710938 -0.515625 4.769531 -0.789062 5.4375 -1.34375 C 6.164062 -1.957031 6.53125 -4.789062 6.53125 -9.84375 L 6.53125 -20.65625 C 6.53125 -23.757812 6.4375 -25.882812 6.25 -27.03125 C 6.0625 -28.175781 5.789062 -28.894531 5.4375 -29.1875 C 4.769531 -29.738281 3.710938 -30.015625 2.265625 -30.015625 L 2.171875 -30.5 Z M 11.203125 -1.046875 C 11.546875 -1.015625 12.257812 -1 13.34375 -1 C 14.4375 -1 15.628906 -1.113281 16.921875 -1.34375 C 18.210938 -1.582031 19.546875 -2.023438 20.921875 -2.671875 C 22.304688 -3.328125 23.5 -4.160156 24.5 -5.171875 C 25.5 -6.191406 26.328125 -7.566406 26.984375 -9.296875 C 27.640625 -11.023438 27.96875 -13 27.96875 -15.21875 C 27.96875 -17.445312 27.644531 -19.414062 27 -21.125 C 26.363281 -22.84375 25.535156 -24.21875 24.515625 -25.25 C 23.503906 -26.28125 22.316406 -27.128906 20.953125 -27.796875 C 18.546875 -28.921875 15.890625 -29.484375 12.984375 -29.484375 C 11.671875 -29.484375 10.535156 -29.398438 9.578125 -29.234375 L 9.578125 -9.328125 C 9.578125 -6.191406 9.664062 -4.113281 9.84375 -3.09375 C 10.019531 -2.070312 10.472656 -1.390625 11.203125 -1.046875 Z M 11.203125 -1.046875 "/></g></g></g><g fill="#fefce3" fill-opacity="1"><g transform="translate(311.498352, 182.885261)"><g><path d="M 19.296875 -0.515625 C 20.398438 -0.515625 21.175781 -0.601562 21.625 -0.78125 C 22.070312 -0.957031 22.296875 -1.40625 22.296875 -2.125 C 22.296875 -2.851562 21.53125 -5.328125 20 -9.546875 L 6.703125 -9.546875 C 5.453125 -5.847656 4.828125 -3.523438 4.828125 -2.578125 C 4.828125 -1.640625 5.066406 -1.0625 5.546875 -0.84375 C 6.023438 -0.625 6.890625 -0.515625 8.140625 -0.515625 L 8.234375 0 L -1.5625 0 L -1.484375 -0.515625 C -0.640625 -0.515625 0.0195312 -0.585938 0.5 -0.734375 C 0.976562 -0.878906 1.5 -1.265625 2.0625 -1.890625 C 2.632812 -2.515625 3.179688 -3.421875 3.703125 -4.609375 C 4.222656 -5.804688 4.847656 -7.476562 5.578125 -9.625 L 9.453125 -20.828125 C 10.816406 -24.773438 11.5 -27.171875 11.5 -28.015625 C 11.5 -28.859375 11.296875 -29.398438 10.890625 -29.640625 C 10.484375 -29.890625 9.695312 -30.015625 8.53125 -30.015625 L 8.453125 -30.5 L 15.640625 -30.5 L 23.34375 -9.625 C 24.65625 -6.164062 25.535156 -3.972656 25.984375 -3.046875 C 26.429688 -2.117188 26.859375 -1.523438 27.265625 -1.265625 C 27.992188 -0.765625 28.910156 -0.515625 30.015625 -0.515625 L 30.109375 0 L 19.21875 0 Z M 13.203125 -28.140625 L 7.0625 -10.578125 L 19.640625 -10.578125 Z M 13.203125 -28.140625 "/></g></g></g><g fill="#fefce3" fill-opacity="1"><g transform="translate(340.029204, 182.885261)"><g><path d="M 17.859375 -9.84375 C 17.859375 -5.539062 18.101562 -2.925781 18.59375 -2 C 18.769531 -1.65625 19.078125 -1.351562 19.515625 -1.09375 C 19.953125 -0.832031 20.414062 -0.671875 20.90625 -0.609375 C 21.40625 -0.546875 22.085938 -0.515625 22.953125 -0.515625 L 23.046875 0 L 9.625 0 L 9.71875 -0.515625 C 10.582031 -0.515625 11.269531 -0.535156 11.78125 -0.578125 C 12.289062 -0.628906 12.753906 -0.800781 13.171875 -1.09375 C 13.597656 -1.382812 13.90625 -1.6875 14.09375 -2 C 14.28125 -2.320312 14.429688 -2.890625 14.546875 -3.703125 C 14.722656 -4.691406 14.8125 -6.738281 14.8125 -9.84375 L 14.8125 -12.59375 L 9.9375 -20.828125 C 8.570312 -23.148438 7.550781 -24.835938 6.875 -25.890625 C 6.207031 -26.953125 5.523438 -27.832031 4.828125 -28.53125 C 4.140625 -29.226562 3.566406 -29.640625 3.109375 -29.765625 C 2.660156 -29.898438 2 -29.96875 1.125 -29.96875 L 1.046875 -30.5 L 11.890625 -30.5 L 11.8125 -29.96875 C 10.851562 -29.96875 10.175781 -29.898438 9.78125 -29.765625 C 9.382812 -29.640625 9.1875 -29.34375 9.1875 -28.875 C 9.1875 -28.351562 9.367188 -27.757812 9.734375 -27.09375 C 10.097656 -26.425781 10.335938 -25.972656 10.453125 -25.734375 C 10.566406 -25.503906 10.753906 -25.164062 11.015625 -24.71875 C 11.273438 -24.269531 11.492188 -23.898438 11.671875 -23.609375 C 12.453125 -22.210938 12.988281 -21.285156 13.28125 -20.828125 L 17.203125 -14.078125 L 20.5625 -20.828125 C 22.5625 -24.953125 23.5625 -27.503906 23.5625 -28.484375 C 23.5625 -29.128906 23.347656 -29.535156 22.921875 -29.703125 C 22.503906 -29.878906 21.75 -29.96875 20.65625 -29.96875 L 20.5625 -30.5 L 30.3125 -30.5 L 30.234375 -29.96875 C 28.867188 -29.96875 27.722656 -29.738281 26.796875 -29.28125 C 26.097656 -28.925781 25.109375 -27.546875 23.828125 -25.140625 C 23.335938 -24.203125 22.613281 -22.765625 21.65625 -20.828125 L 17.859375 -13.0625 Z M 17.859375 -9.84375 "/></g></g></g></svg>