<svg xmlns="http://www.w3.org/2000/svg" xmlns:xlink="http://www.w3.org/1999/xlink" width="500" zoomAndPan="magnify" viewBox="0 0 375 374.999991" height="500" preserveAspectRatio="xMidYMid meet" version="1.0"><defs><g/><clipPath id="7375fc8834"><path d="M 0 77.230469 L 173.894531 77.230469 L 173.894531 297.730469 L 0 297.730469 Z M 0 77.230469 " clip-rule="nonzero"/></clipPath></defs><path stroke-linecap="butt" transform="matrix(0.75, -0.000000000000000186, 0.000000000000000186, 0.75, 74.047032, 200.713376)" fill="none" stroke-linejoin="miter" d="M -0.00020885 1.501957 L 401.270651 1.501957 " stroke="#e5c078" stroke-width="3" stroke-opacity="1" stroke-miterlimit="4"/><g fill="#fefce3" fill-opacity="1"><g transform="translate(96.998436, 232.418086)"><g><path d="M 2.140625 -15.109375 L 8.578125 -15.109375 C 9.441406 -15.109375 10.207031 -14.988281 10.875 -14.75 C 11.539062 -14.519531 12.09375 -14.195312 12.53125 -13.78125 C 13.175781 -13.101562 13.5 -12.296875 13.5 -11.359375 L 13.5 -11.3125 C 13.5 -10.820312 13.425781 -10.382812 13.28125 -10 C 13.144531 -9.625 12.960938 -9.296875 12.734375 -9.015625 C 12.503906 -8.734375 12.25 -8.492188 11.96875 -8.296875 C 11.6875 -8.109375 11.394531 -7.945312 11.09375 -7.8125 C 11.539062 -7.6875 11.960938 -7.519531 12.359375 -7.3125 C 12.753906 -7.101562 13.09375 -6.851562 13.375 -6.5625 C 13.664062 -6.269531 13.898438 -5.925781 14.078125 -5.53125 C 14.253906 -5.132812 14.34375 -4.679688 14.34375 -4.171875 L 14.34375 -4.125 C 14.34375 -3.476562 14.210938 -2.898438 13.953125 -2.390625 C 13.691406 -1.878906 13.316406 -1.445312 12.828125 -1.09375 C 12.347656 -0.738281 11.769531 -0.46875 11.09375 -0.28125 C 10.414062 -0.09375 9.671875 0 8.859375 0 L 2.140625 0 Z M 11.765625 -11.125 C 11.765625 -11.875 11.476562 -12.46875 10.90625 -12.90625 C 10.332031 -13.351562 9.503906 -13.578125 8.421875 -13.578125 L 3.828125 -13.578125 L 3.828125 -8.375 L 8.296875 -8.375 C 9.328125 -8.375 10.160156 -8.597656 10.796875 -9.046875 C 11.441406 -9.503906 11.765625 -10.179688 11.765625 -11.078125 Z M 12.609375 -4.28125 C 12.609375 -5.09375 12.269531 -5.722656 11.59375 -6.171875 C 10.914062 -6.628906 9.914062 -6.859375 8.59375 -6.859375 L 3.828125 -6.859375 L 3.828125 -1.53125 L 8.890625 -1.53125 C 10.046875 -1.53125 10.953125 -1.765625 11.609375 -2.234375 C 12.273438 -2.710938 12.609375 -3.378906 12.609375 -4.234375 Z M 12.609375 -4.28125 "/></g></g></g><g fill="#fefce3" fill-opacity="1"><g transform="translate(116.483688, 232.418086)"><g><path d="M 2.140625 -15.109375 L 13.0625 -15.109375 L 13.0625 -13.5625 L 3.84375 -13.5625 L 3.84375 -8.40625 L 12.09375 -8.40625 L 12.09375 -6.84375 L 3.84375 -6.84375 L 3.84375 -1.5625 L 13.171875 -1.5625 L 13.171875 0 L 2.140625 0 Z M 2.140625 -15.109375 "/></g></g></g><g fill="#fefce3" fill-opacity="1"><g transform="translate(134.84703, 232.418086)"><g><path d="M 6.0625 -13.546875 L 0.96875 -13.546875 L 0.96875 -15.109375 L 12.875 -15.109375 L 12.875 -13.546875 L 7.78125 -13.546875 L 7.78125 0 L 6.0625 0 Z M 6.0625 -13.546875 "/></g></g></g><g fill="#fefce3" fill-opacity="1"><g transform="translate(152.58468, 232.418086)"><g><path d="M 6.0625 -13.546875 L 0.96875 -13.546875 L 0.96875 -15.109375 L 12.875 -15.109375 L 12.875 -13.546875 L 7.78125 -13.546875 L 7.78125 0 L 6.0625 0 Z M 6.0625 -13.546875 "/></g></g></g><g fill="#fefce3" fill-opacity="1"><g transform="translate(170.32233, 232.418086)"><g><path d="M 2.140625 -15.109375 L 13.0625 -15.109375 L 13.0625 -13.5625 L 3.84375 -13.5625 L 3.84375 -8.40625 L 12.09375 -8.40625 L 12.09375 -6.84375 L 3.84375 -6.84375 L 3.84375 -1.5625 L 13.171875 -1.5625 L 13.171875 0 L 2.140625 0 Z M 2.140625 -15.109375 "/></g></g></g><g fill="#fefce3" fill-opacity="1"><g transform="translate(188.685672, 232.418086)"><g><path d="M 2.140625 -15.109375 L 8.640625 -15.109375 C 9.578125 -15.109375 10.40625 -14.972656 11.125 -14.703125 C 11.851562 -14.441406 12.457031 -14.078125 12.9375 -13.609375 C 13.3125 -13.234375 13.597656 -12.789062 13.796875 -12.28125 C 13.992188 -11.78125 14.09375 -11.226562 14.09375 -10.625 L 14.09375 -10.578125 C 14.09375 -9.941406 13.992188 -9.375 13.796875 -8.875 C 13.597656 -8.382812 13.3125 -7.957031 12.9375 -7.59375 C 12.570312 -7.226562 12.140625 -6.925781 11.640625 -6.6875 C 11.140625 -6.445312 10.59375 -6.273438 10 -6.171875 L 14.640625 0 L 12.546875 0 L 8.15625 -5.875 L 3.84375 -5.875 L 3.84375 0 L 2.140625 0 Z M 8.484375 -7.40625 C 9.046875 -7.40625 9.5625 -7.476562 10.03125 -7.625 C 10.507812 -7.769531 10.921875 -7.972656 11.265625 -8.234375 C 11.617188 -8.503906 11.890625 -8.828125 12.078125 -9.203125 C 12.273438 -9.585938 12.375 -10.023438 12.375 -10.515625 L 12.375 -10.5625 C 12.375 -11.5 12.035156 -12.226562 11.359375 -12.75 C 10.679688 -13.28125 9.734375 -13.546875 8.515625 -13.546875 L 3.84375 -13.546875 L 3.84375 -7.40625 Z M 8.484375 -7.40625 "/></g></g></g><g fill="#fefce3" fill-opacity="1"><g transform="translate(208.192493, 232.418086)"><g/></g></g><g fill="#fefce3" fill-opacity="1"><g transform="translate(218.573017, 232.418086)"><g><path d="M 10.671875 -2.140625 C 9.972656 -1.390625 9.222656 -0.804688 8.421875 -0.390625 C 7.617188 0.015625 6.71875 0.21875 5.71875 0.21875 C 5.039062 0.21875 4.410156 0.117188 3.828125 -0.078125 C 3.242188 -0.285156 2.738281 -0.578125 2.3125 -0.953125 C 1.894531 -1.328125 1.566406 -1.769531 1.328125 -2.28125 C 1.085938 -2.800781 0.96875 -3.378906 0.96875 -4.015625 L 0.96875 -4.0625 C 0.96875 -5.070312 1.285156 -5.9375 1.921875 -6.65625 C 2.554688 -7.375 3.457031 -7.960938 4.625 -8.421875 C 4.101562 -9.023438 3.71875 -9.578125 3.46875 -10.078125 C 3.226562 -10.585938 3.109375 -11.144531 3.109375 -11.75 L 3.109375 -11.796875 C 3.109375 -12.285156 3.203125 -12.75 3.390625 -13.1875 C 3.585938 -13.625 3.859375 -14.003906 4.203125 -14.328125 C 4.554688 -14.648438 4.976562 -14.90625 5.46875 -15.09375 C 5.957031 -15.28125 6.503906 -15.375 7.109375 -15.375 C 7.640625 -15.375 8.125 -15.28125 8.5625 -15.09375 C 9.007812 -14.914062 9.394531 -14.671875 9.71875 -14.359375 C 10.050781 -14.054688 10.3125 -13.695312 10.5 -13.28125 C 10.6875 -12.875 10.78125 -12.4375 10.78125 -11.96875 L 10.78125 -11.921875 C 10.78125 -10.953125 10.460938 -10.148438 9.828125 -9.515625 C 9.191406 -8.890625 8.320312 -8.378906 7.21875 -7.984375 L 10.671875 -4.46875 C 10.992188 -4.957031 11.304688 -5.484375 11.609375 -6.046875 C 11.921875 -6.609375 12.210938 -7.207031 12.484375 -7.84375 L 13.890625 -7.1875 C 13.554688 -6.46875 13.210938 -5.789062 12.859375 -5.15625 C 12.503906 -4.519531 12.117188 -3.929688 11.703125 -3.390625 L 14.34375 -0.6875 L 13.046875 0.296875 Z M 6.265625 -8.96875 C 7.222656 -9.289062 7.945312 -9.6875 8.4375 -10.15625 C 8.925781 -10.625 9.171875 -11.179688 9.171875 -11.828125 L 9.171875 -11.875 C 9.171875 -12.476562 8.96875 -12.976562 8.5625 -13.375 C 8.164062 -13.769531 7.660156 -13.96875 7.046875 -13.96875 C 6.347656 -13.96875 5.789062 -13.757812 5.375 -13.34375 C 4.957031 -12.925781 4.75 -12.410156 4.75 -11.796875 L 4.75 -11.75 C 4.75 -11.53125 4.773438 -11.316406 4.828125 -11.109375 C 4.878906 -10.898438 4.960938 -10.6875 5.078125 -10.46875 C 5.191406 -10.257812 5.34375 -10.03125 5.53125 -9.78125 C 5.726562 -9.539062 5.972656 -9.269531 6.265625 -8.96875 Z M 5.859375 -1.234375 C 6.578125 -1.234375 7.25 -1.40625 7.875 -1.75 C 8.5 -2.101562 9.082031 -2.585938 9.625 -3.203125 L 5.59375 -7.359375 C 4.582031 -6.984375 3.847656 -6.507812 3.390625 -5.9375 C 2.929688 -5.375 2.703125 -4.769531 2.703125 -4.125 L 2.703125 -4.078125 C 2.703125 -3.679688 2.773438 -3.304688 2.921875 -2.953125 C 3.078125 -2.609375 3.296875 -2.304688 3.578125 -2.046875 C 3.859375 -1.785156 4.191406 -1.582031 4.578125 -1.4375 C 4.960938 -1.300781 5.390625 -1.234375 5.859375 -1.234375 Z M 5.859375 -1.234375 "/></g></g></g><g fill="#fefce3" fill-opacity="1"><g transform="translate(237.497314, 232.418086)"><g/></g></g><g fill="#fefce3" fill-opacity="1"><g transform="translate(247.877831, 232.418086)"><g><path d="M 2.140625 -15.109375 L 8.578125 -15.109375 C 9.441406 -15.109375 10.207031 -14.988281 10.875 -14.75 C 11.539062 -14.519531 12.09375 -14.195312 12.53125 -13.78125 C 13.175781 -13.101562 13.5 -12.296875 13.5 -11.359375 L 13.5 -11.3125 C 13.5 -10.820312 13.425781 -10.382812 13.28125 -10 C 13.144531 -9.625 12.960938 -9.296875 12.734375 -9.015625 C 12.503906 -8.734375 12.25 -8.492188 11.96875 -8.296875 C 11.6875 -8.109375 11.394531 -7.945312 11.09375 -7.8125 C 11.539062 -7.6875 11.960938 -7.519531 12.359375 -7.3125 C 12.753906 -7.101562 13.09375 -6.851562 13.375 -6.5625 C 13.664062 -6.269531 13.898438 -5.925781 14.078125 -5.53125 C 14.253906 -5.132812 14.34375 -4.679688 14.34375 -4.171875 L 14.34375 -4.125 C 14.34375 -3.476562 14.210938 -2.898438 13.953125 -2.390625 C 13.691406 -1.878906 13.316406 -1.445312 12.828125 -1.09375 C 12.347656 -0.738281 11.769531 -0.46875 11.09375 -0.28125 C 10.414062 -0.09375 9.671875 0 8.859375 0 L 2.140625 0 Z M 11.765625 -11.125 C 11.765625 -11.875 11.476562 -12.46875 10.90625 -12.90625 C 10.332031 -13.351562 9.503906 -13.578125 8.421875 -13.578125 L 3.828125 -13.578125 L 3.828125 -8.375 L 8.296875 -8.375 C 9.328125 -8.375 10.160156 -8.597656 10.796875 -9.046875 C 11.441406 -9.503906 11.765625 -10.179688 11.765625 -11.078125 Z M 12.609375 -4.28125 C 12.609375 -5.09375 12.269531 -5.722656 11.59375 -6.171875 C 10.914062 -6.628906 9.914062 -6.859375 8.59375 -6.859375 L 3.828125 -6.859375 L 3.828125 -1.53125 L 8.890625 -1.53125 C 10.046875 -1.53125 10.953125 -1.765625 11.609375 -2.234375 C 12.273438 -2.710938 12.609375 -3.378906 12.609375 -4.234375 Z M 12.609375 -4.28125 "/></g></g></g><g fill="#fefce3" fill-opacity="1"><g transform="translate(267.363091, 232.418086)"><g><path d="M 2.140625 -15.109375 L 13.0625 -15.109375 L 13.0625 -13.5625 L 3.84375 -13.5625 L 3.84375 -8.40625 L 12.09375 -8.40625 L 12.09375 -6.84375 L 3.84375 -6.84375 L 3.84375 -1.5625 L 13.171875 -1.5625 L 13.171875 0 L 2.140625 0 Z M 2.140625 -15.109375 "/></g></g></g><g fill="#fefce3" fill-opacity="1"><g transform="translate(285.726439, 232.418086)"><g><path d="M 6.0625 -13.546875 L 0.96875 -13.546875 L 0.96875 -15.109375 L 12.875 -15.109375 L 12.875 -13.546875 L 7.78125 -13.546875 L 7.78125 0 L 6.0625 0 Z M 6.0625 -13.546875 "/></g></g></g><g fill="#fefce3" fill-opacity="1"><g transform="translate(303.464082, 232.418086)"><g><path d="M 6.0625 -13.546875 L 0.96875 -13.546875 L 0.96875 -15.109375 L 12.875 -15.109375 L 12.875 -13.546875 L 7.78125 -13.546875 L 7.78125 0 L 6.0625 0 Z M 6.0625 -13.546875 "/></g></g></g><g fill="#fefce3" fill-opacity="1"><g transform="translate(321.201724, 232.418086)"><g><path d="M 2.140625 -15.109375 L 13.0625 -15.109375 L 13.0625 -13.5625 L 3.84375 -13.5625 L 3.84375 -8.40625 L 12.09375 -8.40625 L 12.09375 -6.84375 L 3.84375 -6.84375 L 3.84375 -1.5625 L 13.171875 -1.5625 L 13.171875 0 L 2.140625 0 Z M 2.140625 -15.109375 "/></g></g></g><g fill="#fefce3" fill-opacity="1"><g transform="translate(339.565073, 232.418086)"><g><path d="M 2.140625 -15.109375 L 8.640625 -15.109375 C 9.578125 -15.109375 10.40625 -14.972656 11.125 -14.703125 C 11.851562 -14.441406 12.457031 -14.078125 12.9375 -13.609375 C 13.3125 -13.234375 13.597656 -12.789062 13.796875 -12.28125 C 13.992188 -11.78125 14.09375 -11.226562 14.09375 -10.625 L 14.09375 -10.578125 C 14.09375 -9.941406 13.992188 -9.375 13.796875 -8.875 C 13.597656 -8.382812 13.3125 -7.957031 12.9375 -7.59375 C 12.570312 -7.226562 12.140625 -6.925781 11.640625 -6.6875 C 11.140625 -6.445312 10.59375 -6.273438 10 -6.171875 L 14.640625 0 L 12.546875 0 L 8.15625 -5.875 L 3.84375 -5.875 L 3.84375 0 L 2.140625 0 Z M 8.484375 -7.40625 C 9.046875 -7.40625 9.5625 -7.476562 10.03125 -7.625 C 10.507812 -7.769531 10.921875 -7.972656 11.265625 -8.234375 C 11.617188 -8.503906 11.890625 -8.828125 12.078125 -9.203125 C 12.273438 -9.585938 12.375 -10.023438 12.375 -10.515625 L 12.375 -10.5625 C 12.375 -11.5 12.035156 -12.226562 11.359375 -12.75 C 10.679688 -13.28125 9.734375 -13.546875 8.515625 -13.546875 L 3.84375 -13.546875 L 3.84375 -7.40625 Z M 8.484375 -7.40625 "/></g></g></g><path fill="#fefce3" d="M 110.226562 296.261719 C 132.332031 296.261719 153.96875 289.558594 172.136719 276.917969 C 122.75 292.027344 70.484375 264.21875 55.375 214.835938 C 40.265625 165.453125 68.015625 113.1875 117.402344 98.078125 C 135.214844 92.609375 154.261719 92.609375 172.136719 98.078125 C 153.96875 85.4375 132.332031 78.675781 110.226562 78.734375 C 50.144531 78.734375 1.464844 127.414062 1.464844 187.496094 C 1.464844 247.582031 50.144531 296.261719 110.226562 296.261719 Z M 110.226562 296.261719 " fill-opacity="1" fill-rule="nonzero"/><g clip-path="url(#7375fc8834)"><path fill="#fefce3" d="M 110.40625 77.265625 C 132.863281 77.265625 154.496094 84.027344 173.015625 96.902344 C 173.605469 97.3125 173.839844 98.078125 173.488281 98.722656 C 173.191406 99.371094 172.429688 99.722656 171.722656 99.488281 C 154.085938 94.078125 135.507812 94.078125 117.871094 99.488281 C 94.355469 106.660156 75.070312 122.59375 63.546875 144.285156 C 52.027344 165.980469 49.617188 190.90625 56.789062 214.425781 C 63.960938 237.941406 79.890625 257.222656 101.585938 268.746094 C 123.28125 280.328125 148.207031 282.679688 171.722656 275.507812 C 172.429688 275.273438 173.132812 275.625 173.488281 276.273438 C 173.78125 276.917969 173.605469 277.683594 173.015625 278.09375 C 154.496094 290.96875 132.863281 297.730469 110.40625 297.730469 C 110.347656 297.730469 110.289062 297.730469 110.289062 297.730469 C 49.496094 297.730469 0.0546875 248.289062 0.0546875 187.496094 C 0.0546875 126.707031 49.4375 77.265625 110.226562 77.265625 C 110.289062 77.265625 110.347656 77.265625 110.40625 77.265625 Z M 163.550781 94.375 C 147.382812 85.085938 129.160156 80.207031 110.347656 80.207031 C 110.289062 80.207031 110.226562 80.207031 110.226562 80.207031 C 51.085938 80.207031 2.933594 128.355469 2.933594 187.496094 C 2.933594 246.640625 51.085938 294.789062 110.226562 294.789062 C 110.226562 294.789062 110.347656 294.789062 110.347656 294.789062 C 129.160156 294.789062 147.382812 289.910156 163.550781 280.621094 C 142.035156 285.03125 119.871094 281.796875 100.175781 271.390625 C 77.777344 259.515625 61.375 239.585938 53.90625 215.304688 C 46.5 191.027344 48.96875 165.332031 60.84375 142.933594 C 72.71875 120.535156 92.648438 104.132812 116.929688 96.667969 C 132.214844 92.023438 148.148438 91.257812 163.550781 94.375 Z M 163.550781 94.375 " fill-opacity="1" fill-rule="nonzero"/></g><g fill="#fefce3" fill-opacity="1"><g transform="translate(78.195469, 185.823885)"><g><path d="M 28.09375 0 L 2.53125 0 L 2.640625 -0.609375 C 4.328125 -0.609375 5.5625 -0.929688 6.34375 -1.578125 C 7.1875 -2.285156 7.609375 -5.582031 7.609375 -11.46875 L 7.609375 -24.046875 C 7.609375 -27.660156 7.5 -30.132812 7.28125 -31.46875 C 7.0625 -32.800781 6.75 -33.640625 6.34375 -33.984375 C 5.5625 -34.617188 4.328125 -34.9375 2.640625 -34.9375 L 2.53125 -35.5 L 26.21875 -35.5 L 26.21875 -28.203125 L 25.609375 -28.296875 C 25.609375 -30.566406 24.414062 -32.140625 22.03125 -33.015625 C 19.65625 -33.898438 16.015625 -34.34375 11.109375 -34.34375 L 11.109375 -18.359375 C 14.347656 -18.359375 16.675781 -18.523438 18.09375 -18.859375 C 19.519531 -19.203125 20.4375 -19.71875 20.84375 -20.40625 C 21.25 -21.101562 21.453125 -22.265625 21.453125 -23.890625 L 22.015625 -23.984375 L 22.015625 -11.671875 L 21.453125 -11.765625 C 21.453125 -13.421875 21.25 -14.585938 20.84375 -15.265625 C 20.4375 -15.941406 19.519531 -16.441406 18.09375 -16.765625 C 16.675781 -17.085938 14.347656 -17.25 11.109375 -17.25 L 11.109375 -10.703125 C 11.109375 -7.117188 11.234375 -4.734375 11.484375 -3.546875 C 11.742188 -2.367188 12.3125 -1.578125 13.1875 -1.171875 C 22.71875 -1.171875 27.484375 -3.195312 27.484375 -7.25 L 28.09375 -7.359375 Z M 28.09375 0 "/></g></g></g><g fill="#fefce3" fill-opacity="1"><g transform="translate(109.438238, 185.823885)"><g><path d="M 10.34375 -33.296875 C 10.34375 -32.703125 10.382812 -32.242188 10.46875 -31.921875 C 10.550781 -31.609375 10.617188 -31.347656 10.671875 -31.140625 C 10.722656 -30.941406 10.800781 -30.660156 10.90625 -30.296875 C 11.007812 -29.941406 11.101562 -29.640625 11.1875 -29.390625 C 11.269531 -29.140625 11.394531 -28.773438 11.5625 -28.296875 C 11.726562 -27.828125 11.867188 -27.4375 11.984375 -27.125 C 12.109375 -26.820312 12.28125 -26.367188 12.5 -25.765625 C 12.71875 -25.160156 12.894531 -24.671875 13.03125 -24.296875 L 20.953125 -2.734375 L 28.453125 -24.296875 C 29.941406 -28.585938 30.6875 -31.273438 30.6875 -32.359375 C 30.6875 -33.441406 30.394531 -34.132812 29.8125 -34.4375 C 29.238281 -34.738281 28.242188 -34.890625 26.828125 -34.890625 L 26.734375 -35.5 L 39.15625 -35.5 L 39.046875 -34.890625 C 37.765625 -34.890625 36.789062 -34.804688 36.125 -34.640625 C 35.46875 -34.472656 34.773438 -34.015625 34.046875 -33.265625 C 33.328125 -32.523438 32.660156 -31.476562 32.046875 -30.125 C 31.441406 -28.769531 30.703125 -26.828125 29.828125 -24.296875 L 21.296875 0.25 L 18.109375 0.25 L 9.125 -24.296875 C 7.238281 -29.367188 5.90625 -32.359375 5.125 -33.265625 C 4.820312 -33.640625 4.40625 -33.976562 3.875 -34.28125 C 3.351562 -34.59375 2.847656 -34.769531 2.359375 -34.8125 C 1.867188 -34.863281 1.203125 -34.890625 0.359375 -34.890625 L 0.25 -35.5 L 13.953125 -35.5 L 13.84375 -34.890625 C 12.5625 -34.890625 11.65625 -34.769531 11.125 -34.53125 C 10.601562 -34.300781 10.34375 -33.890625 10.34375 -33.296875 Z M 10.34375 -33.296875 "/></g></g></g><g fill="#fefce3" fill-opacity="1"><g transform="translate(148.846732, 185.823885)"><g><path d="M 28.09375 0 L 2.53125 0 L 2.640625 -0.609375 C 4.328125 -0.609375 5.5625 -0.929688 6.34375 -1.578125 C 7.1875 -2.285156 7.609375 -5.582031 7.609375 -11.46875 L 7.609375 -24.046875 C 7.609375 -27.660156 7.5 -30.132812 7.28125 -31.46875 C 7.0625 -32.800781 6.75 -33.640625 6.34375 -33.984375 C 5.5625 -34.617188 4.328125 -34.9375 2.640625 -34.9375 L 2.53125 -35.5 L 26.21875 -35.5 L 26.21875 -28.203125 L 25.609375 -28.296875 C 25.609375 -30.566406 24.414062 -32.140625 22.03125 -33.015625 C 19.65625 -33.898438 16.015625 -34.34375 11.109375 -34.34375 L 11.109375 -18.359375 C 14.347656 -18.359375 16.675781 -18.523438 18.09375 -18.859375 C 19.519531 -19.203125 20.4375 -19.71875 20.84375 -20.40625 C 21.25 -21.101562 21.453125 -22.265625 21.453125 -23.890625 L 22.015625 -23.984375 L 22.015625 -11.671875 L 21.453125 -11.765625 C 21.453125 -13.421875 21.25 -14.585938 20.84375 -15.265625 C 20.4375 -15.941406 19.519531 -16.441406 18.09375 -16.765625 C 16.675781 -17.085938 14.347656 -17.25 11.109375 -17.25 L 11.109375 -10.703125 C 11.109375 -7.117188 11.234375 -4.734375 11.484375 -3.546875 C 11.742188 -2.367188 12.3125 -1.578125 13.1875 -1.171875 C 22.71875 -1.171875 27.484375 -3.195312 27.484375 -7.25 L 28.09375 -7.359375 Z M 28.09375 0 "/></g></g></g><g fill="#fefce3" fill-opacity="1"><g transform="translate(180.089501, 185.823885)"><g><path d="M 28.453125 0 C 27.609375 0 26.769531 -0.429688 25.9375 -1.296875 C 25.113281 -2.160156 24.367188 -3.234375 23.703125 -4.515625 C 23.046875 -5.796875 22.273438 -7.1875 21.390625 -8.6875 C 20.515625 -10.195312 19.640625 -11.609375 18.765625 -12.921875 C 17.890625 -14.242188 16.773438 -15.363281 15.421875 -16.28125 C 14.066406 -17.195312 12.628906 -17.6875 11.109375 -17.75 L 11.109375 -11.46875 C 11.109375 -7.8125 11.21875 -5.332031 11.4375 -4.03125 C 11.65625 -2.726562 11.96875 -1.910156 12.375 -1.578125 C 13.1875 -0.929688 14.4375 -0.609375 16.125 -0.609375 L 16.234375 0 L 2.640625 0 L 2.734375 -0.609375 C 4.390625 -0.609375 5.609375 -0.910156 6.390625 -1.515625 C 7.035156 -2.023438 7.40625 -3.679688 7.5 -6.484375 C 7.570312 -7.609375 7.609375 -9.269531 7.609375 -11.46875 L 7.609375 -24.296875 C 7.609375 -28.046875 7.503906 -30.53125 7.296875 -31.75 C 7.097656 -32.96875 6.796875 -33.726562 6.390625 -34.03125 C 5.609375 -34.601562 4.390625 -34.890625 2.734375 -34.890625 L 2.640625 -35.5 L 14.40625 -35.5 C 22.925781 -35.5 27.1875 -32.625 27.1875 -26.875 C 27.1875 -24.40625 26.316406 -22.332031 24.578125 -20.65625 C 22.835938 -18.988281 20.734375 -18.019531 18.265625 -17.75 C 20.734375 -16.300781 23.015625 -13.628906 25.109375 -9.734375 C 25.921875 -8.210938 26.78125 -6.757812 27.6875 -5.375 C 29.6875 -2.195312 32.257812 -0.609375 35.40625 -0.609375 L 35.5 0 Z M 11.109375 -34.34375 L 11.109375 -18.765625 L 14.296875 -18.765625 C 16.867188 -18.765625 19 -19.421875 20.6875 -20.734375 C 22.382812 -22.054688 23.234375 -24.019531 23.234375 -26.625 C 23.234375 -31.769531 20.289062 -34.34375 14.40625 -34.34375 Z M 11.109375 -34.34375 "/></g></g></g><g fill="#fefce3" fill-opacity="1"><g transform="translate(213.056712, 185.823885)"><g><path d="M 20.796875 -11.46875 C 20.796875 -6.457031 21.082031 -3.410156 21.65625 -2.328125 C 21.863281 -1.921875 22.21875 -1.566406 22.71875 -1.265625 C 23.226562 -0.960938 23.769531 -0.773438 24.34375 -0.703125 C 24.914062 -0.640625 25.710938 -0.609375 26.734375 -0.609375 L 26.828125 0 L 11.203125 0 L 11.3125 -0.609375 C 12.320312 -0.609375 13.125 -0.632812 13.71875 -0.6875 C 14.3125 -0.738281 14.851562 -0.929688 15.34375 -1.265625 C 15.832031 -1.609375 16.1875 -1.960938 16.40625 -2.328125 C 16.625 -2.703125 16.800781 -3.363281 16.9375 -4.3125 C 17.144531 -5.457031 17.25 -7.84375 17.25 -11.46875 L 17.25 -14.65625 L 11.5625 -24.25 C 9.976562 -26.945312 8.796875 -28.910156 8.015625 -30.140625 C 7.234375 -31.378906 6.4375 -32.40625 5.625 -33.21875 C 4.8125 -34.03125 4.144531 -34.507812 3.625 -34.65625 C 3.101562 -34.8125 2.332031 -34.890625 1.3125 -34.890625 L 1.21875 -35.5 L 13.84375 -35.5 L 13.75 -34.890625 C 12.632812 -34.890625 11.847656 -34.8125 11.390625 -34.65625 C 10.929688 -34.507812 10.703125 -34.164062 10.703125 -33.625 C 10.703125 -33.019531 10.910156 -32.328125 11.328125 -31.546875 C 11.753906 -30.765625 12.035156 -30.238281 12.171875 -29.96875 C 12.304688 -29.695312 12.523438 -29.300781 12.828125 -28.78125 C 13.128906 -28.257812 13.382812 -27.828125 13.59375 -27.484375 C 14.507812 -25.867188 15.132812 -24.789062 15.46875 -24.25 L 20.03125 -16.375 L 23.9375 -24.25 C 26.269531 -29.050781 27.4375 -32.023438 27.4375 -33.171875 C 27.4375 -33.910156 27.191406 -34.378906 26.703125 -34.578125 C 26.210938 -34.785156 25.328125 -34.890625 24.046875 -34.890625 L 23.9375 -35.5 L 35.296875 -35.5 L 35.203125 -34.890625 C 33.609375 -34.890625 32.269531 -34.617188 31.1875 -34.078125 C 30.375 -33.671875 29.226562 -32.066406 27.75 -29.265625 C 27.164062 -28.179688 26.316406 -26.507812 25.203125 -24.25 L 20.796875 -15.21875 Z M 20.796875 -11.46875 "/></g></g></g><g fill="#fefce3" fill-opacity="1"><g transform="translate(249.624954, 185.823885)"><g/></g></g><g fill="#fefce3" fill-opacity="1"><g transform="translate(262.304652, 185.823885)"><g><path d="M 12.78125 -35.5 C 18.59375 -35.5 22.953125 -34.992188 25.859375 -33.984375 C 27.179688 -33.503906 28.585938 -32.828125 30.078125 -31.953125 C 31.566406 -31.078125 32.773438 -30.03125 33.703125 -28.8125 C 34.628906 -27.59375 35.40625 -26.035156 36.03125 -24.140625 C 36.65625 -22.242188 36.96875 -20.117188 36.96875 -17.765625 C 36.96875 -15.421875 36.65625 -13.3125 36.03125 -11.4375 C 35.40625 -9.5625 34.628906 -8.015625 33.703125 -6.796875 C 32.773438 -5.578125 31.625 -4.519531 30.25 -3.625 C 28.882812 -2.726562 27.59375 -2.0625 26.375 -1.625 C 25.15625 -1.1875 23.800781 -0.832031 22.3125 -0.5625 C 20.320312 -0.1875 18.273438 0 16.171875 0 L 2.53125 0 L 2.640625 -0.609375 C 4.328125 -0.609375 5.5625 -0.929688 6.34375 -1.578125 C 7.1875 -2.285156 7.609375 -5.582031 7.609375 -11.46875 L 7.609375 -24.046875 C 7.609375 -27.660156 7.5 -30.132812 7.28125 -31.46875 C 7.0625 -32.800781 6.75 -33.640625 6.34375 -33.984375 C 5.5625 -34.617188 4.328125 -34.9375 2.640625 -34.9375 L 2.53125 -35.5 Z M 13.03125 -1.21875 C 13.4375 -1.1875 14.273438 -1.171875 15.546875 -1.171875 C 16.816406 -1.171875 18.203125 -1.304688 19.703125 -1.578125 C 21.210938 -1.847656 22.769531 -2.363281 24.375 -3.125 C 25.976562 -3.882812 27.363281 -4.851562 28.53125 -6.03125 C 29.695312 -7.21875 30.660156 -8.816406 31.421875 -10.828125 C 32.179688 -12.835938 32.5625 -15.132812 32.5625 -17.71875 C 32.5625 -20.3125 32.1875 -22.601562 31.4375 -24.59375 C 30.695312 -26.59375 29.734375 -28.191406 28.546875 -29.390625 C 27.367188 -30.585938 25.984375 -31.578125 24.390625 -32.359375 C 21.585938 -33.679688 18.492188 -34.34375 15.109375 -34.34375 C 13.585938 -34.34375 12.269531 -34.238281 11.15625 -34.03125 L 11.15625 -10.859375 C 11.15625 -7.203125 11.253906 -4.78125 11.453125 -3.59375 C 11.660156 -2.414062 12.1875 -1.625 13.03125 -1.21875 Z M 13.03125 -1.21875 "/></g></g></g><g fill="#fefce3" fill-opacity="1"><g transform="translate(301.053807, 185.823885)"><g><path d="M 22.46875 -0.609375 C 23.75 -0.609375 24.648438 -0.707031 25.171875 -0.90625 C 25.703125 -1.113281 25.96875 -1.640625 25.96875 -2.484375 C 25.96875 -3.328125 25.070312 -6.203125 23.28125 -11.109375 L 7.8125 -11.109375 C 6.351562 -6.816406 5.625 -4.117188 5.625 -3.015625 C 5.625 -1.921875 5.898438 -1.242188 6.453125 -0.984375 C 7.015625 -0.734375 8.023438 -0.609375 9.484375 -0.609375 L 9.578125 0 L -1.828125 0 L -1.71875 -0.609375 C -0.738281 -0.609375 0.0234375 -0.691406 0.578125 -0.859375 C 1.140625 -1.023438 1.75 -1.472656 2.40625 -2.203125 C 3.0625 -2.929688 3.691406 -3.988281 4.296875 -5.375 C 4.910156 -6.757812 5.640625 -8.703125 6.484375 -11.203125 L 11 -24.25 C 12.59375 -28.84375 13.390625 -31.628906 13.390625 -32.609375 C 13.390625 -33.585938 13.148438 -34.21875 12.671875 -34.5 C 12.203125 -34.789062 11.289062 -34.9375 9.9375 -34.9375 L 9.84375 -35.5 L 18.203125 -35.5 L 27.1875 -11.203125 C 28.707031 -7.179688 29.726562 -4.628906 30.25 -3.546875 C 30.78125 -2.460938 31.28125 -1.769531 31.75 -1.46875 C 32.59375 -0.894531 33.65625 -0.609375 34.9375 -0.609375 L 35.046875 0 L 22.359375 0 Z M 15.375 -32.765625 L 8.21875 -12.328125 L 22.875 -12.328125 Z M 15.375 -32.765625 "/></g></g></g><g fill="#fefce3" fill-opacity="1"><g transform="translate(334.274607, 185.823885)"><g><path d="M 20.796875 -11.46875 C 20.796875 -6.457031 21.082031 -3.410156 21.65625 -2.328125 C 21.863281 -1.921875 22.21875 -1.566406 22.71875 -1.265625 C 23.226562 -0.960938 23.769531 -0.773438 24.34375 -0.703125 C 24.914062 -0.640625 25.710938 -0.609375 26.734375 -0.609375 L 26.828125 0 L 11.203125 0 L 11.3125 -0.609375 C 12.320312 -0.609375 13.125 -0.632812 13.71875 -0.6875 C 14.3125 -0.738281 14.851562 -0.929688 15.34375 -1.265625 C 15.832031 -1.609375 16.1875 -1.960938 16.40625 -2.328125 C 16.625 -2.703125 16.800781 -3.363281 16.9375 -4.3125 C 17.144531 -5.457031 17.25 -7.84375 17.25 -11.46875 L 17.25 -14.65625 L 11.5625 -24.25 C 9.976562 -26.945312 8.796875 -28.910156 8.015625 -30.140625 C 7.234375 -31.378906 6.4375 -32.40625 5.625 -33.21875 C 4.8125 -34.03125 4.144531 -34.507812 3.625 -34.65625 C 3.101562 -34.8125 2.332031 -34.890625 1.3125 -34.890625 L 1.21875 -35.5 L 13.84375 -35.5 L 13.75 -34.890625 C 12.632812 -34.890625 11.847656 -34.8125 11.390625 -34.65625 C 10.929688 -34.507812 10.703125 -34.164062 10.703125 -33.625 C 10.703125 -33.019531 10.910156 -32.328125 11.328125 -31.546875 C 11.753906 -30.765625 12.035156 -30.238281 12.171875 -29.96875 C 12.304688 -29.695312 12.523438 -29.300781 12.828125 -28.78125 C 13.128906 -28.257812 13.382812 -27.828125 13.59375 -27.484375 C 14.507812 -25.867188 15.132812 -24.789062 15.46875 -24.25 L 20.03125 -16.375 L 23.9375 -24.25 C 26.269531 -29.050781 27.4375 -32.023438 27.4375 -33.171875 C 27.4375 -33.910156 27.191406 -34.378906 26.703125 -34.578125 C 26.210938 -34.785156 25.328125 -34.890625 24.046875 -34.890625 L 23.9375 -35.5 L 35.296875 -35.5 L 35.203125 -34.890625 C 33.609375 -34.890625 32.269531 -34.617188 31.1875 -34.078125 C 30.375 -33.671875 29.226562 -32.066406 27.75 -29.265625 C 27.164062 -28.179688 26.316406 -26.507812 25.203125 -24.25 L 20.796875 -15.21875 Z M 20.796875 -11.46875 "/></g></g></g></svg>