<svg xmlns="http://www.w3.org/2000/svg" xmlns:xlink="http://www.w3.org/1999/xlink" width="500" zoomAndPan="magnify" viewBox="0 0 375 374.999991" height="500" preserveAspectRatio="xMidYMid meet" version="1.0"><defs><clipPath id="3d147cc97b"><path d="M 39.890625 0 L 335 0 L 335 375 L 39.890625 375 Z M 39.890625 0 " clip-rule="nonzero"/></clipPath></defs><path fill="#fefce3" d="M 227.101562 372.5 C 264.699219 372.5 301.5 361.101562 332.398438 339.601562 C 248.398438 365.300781 159.5 318 133.800781 234 C 108.101562 150 155.300781 61.101562 239.300781 35.398438 C 269.601562 26.101562 302 26.101562 332.398438 35.398438 C 301.5 13.898438 264.699219 2.398438 227.101562 2.5 C 124.898438 2.5 42.101562 85.300781 42.101562 187.5 C 42.101562 289.699219 124.898438 372.5 227.101562 372.5 Z M 227.101562 372.5 " fill-opacity="1" fill-rule="nonzero"/><g clip-path="url(#3d147cc97b)"><path fill="#fefce3" d="M 227.398438 0 C 265.601562 0 302.398438 11.5 333.898438 33.398438 C 334.898438 34.101562 335.300781 35.398438 334.699219 36.5 C 334.199219 37.601562 332.898438 38.199219 331.699219 37.800781 C 301.699219 28.601562 270.101562 28.601562 240.101562 37.800781 C 200.101562 50 167.300781 77.101562 147.699219 114 C 128.101562 150.898438 124 193.300781 136.199219 233.300781 C 148.398438 273.300781 175.5 306.101562 212.398438 325.699219 C 249.300781 345.398438 291.699219 349.398438 331.699219 337.199219 C 332.898438 336.800781 334.101562 337.398438 334.699219 338.5 C 335.199219 339.601562 334.898438 340.898438 333.898438 341.601562 C 302.398438 363.5 265.601562 375 227.398438 375 C 227.300781 375 227.199219 375 227.199219 375 C 123.800781 375 39.699219 290.898438 39.699219 187.5 C 39.699219 84.101562 123.699219 0 227.101562 0 C 227.199219 0 227.300781 0 227.398438 0 Z M 317.800781 29.101562 C 290.300781 13.300781 259.300781 5 227.300781 5 C 227.199219 5 227.101562 5 227.101562 5 C 126.5 5 44.601562 86.898438 44.601562 187.5 C 44.601562 288.101562 126.5 370 227.101562 370 C 227.101562 370 227.300781 370 227.300781 370 C 259.300781 370 290.300781 361.699219 317.800781 345.898438 C 281.199219 353.398438 243.5 347.898438 210 330.199219 C 171.898438 310 144 276.101562 131.300781 234.800781 C 118.699219 193.5 122.898438 149.800781 143.101562 111.699219 C 163.300781 73.601562 197.199219 45.699219 238.5 33 C 264.5 25.101562 291.601562 23.800781 317.800781 29.101562 Z M 317.800781 29.101562 " fill-opacity="1" fill-rule="nonzero"/></g></svg>